<?xml version="1.0" standalone="no"?>
<!DOCTYPE svg PUBLIC "-//W3C//DTD SVG 20010904//EN"
 "http://www.w3.org/TR/2001/REC-SVG-20010904/DTD/svg10.dtd">
<svg version="1.0" xmlns="http://www.w3.org/2000/svg"
 width="465.000000pt" height="446.000000pt" viewBox="0 0 465.000000 446.000000"
 preserveAspectRatio="xMidYMid meet">

<g transform="translate(0.000000,446.000000) scale(0.100000,-0.100000)"
fill="#000000" stroke="none">
<path d="M632 4427 c-48 -18 -99 -63 -125 -110 l-22 -42 -3 -1212 -2 -1213
-220 0 -220 0 0 -75 0 -75 597 0 596 0 332 110 332 110 257 -2 258 -3 -76 -60
c-42 -33 -157 -127 -256 -208 -196 -162 -224 -198 -236 -303 -19 -157 115
-305 276 -307 95 -1 148 26 299 150 75 62 138 112 141 113 3 0 157 -152 343
-338 305 -305 337 -341 337 -370 0 -44 -38 -82 -82 -82 -29 0 -61 29 -323 290
l-290 290 -53 -52 -52 -53 250 -250 c238 -239 250 -253 250 -288 0 -43 -35
-87 -70 -87 -40 0 -76 30 -275 229 l-200 201 -52 -52 -53 -52 180 -181 c195
-197 202 -208 156 -261 -18 -21 -32 -28 -60 -28 -34 0 -47 11 -161 124 -69 69
-125 130 -125 137 0 7 -4 13 -9 13 -5 0 -12 13 -16 29 -14 64 -118 150 -182
151 -16 0 -24 8 -29 28 -23 106 -91 174 -196 196 -20 5 -28 13 -28 29 -1 39
-36 102 -80 139 -49 43 -120 63 -185 53 -37 -5 -45 -3 -45 9 0 23 -68 95 -109
115 -58 29 -106 34 -168 16 -48 -14 -70 -30 -161 -118 -104 -101 -152 -171
-152 -224 l0 -23 -440 0 -440 0 0 -75 0 -75 219 0 220 0 3 -287 c3 -275 4
-290 25 -330 27 -51 82 -96 132 -112 26 -7 164 -11 425 -11 l386 0 0 75 0 75
-385 0 -386 0 -24 25 -25 24 0 271 0 270 173 0 c165 0 175 -1 193 -21 23 -26
90 -58 122 -59 12 0 22 -6 22 -12 0 -89 112 -208 194 -208 21 0 26 -7 37 -52
9 -41 23 -63 63 -103 58 -58 119 -80 191 -70 42 7 42 6 69 -39 39 -67 110
-106 194 -106 35 0 73 5 84 11 17 9 26 6 57 -24 53 -51 71 -57 164 -57 77 0
87 3 130 31 26 17 47 34 47 37 0 4 8 17 18 30 l18 23 49 -25 c57 -31 144 -35
203 -10 44 18 96 66 112 104 11 26 14 27 84 26 65 0 79 3 122 29 27 17 63 51
79 76 l30 45 71 -1 c61 0 77 4 120 30 30 19 60 49 79 79 26 43 30 59 30 123
l0 73 98 0 c120 0 174 17 280 89 42 28 90 54 107 57 l30 7 0 -311 c0 -290 -1
-311 -19 -333 l-19 -24 -389 -5 -388 -5 -3 -72 -3 -73 387 0 c261 0 399 4 425
11 50 16 105 61 132 112 21 41 22 53 25 365 l3 322 220 0 219 0 0 75 0 76
-348 -3 -348 -3 -95 -62 c-53 -35 -114 -67 -139 -72 -25 -6 -101 -11 -170 -11
l-125 0 -189 189 -189 189 49 7 c122 15 222 55 301 118 l41 34 -45 56 c-27 35
-49 54 -56 50 -7 -4 -32 -21 -57 -38 -94 -66 -204 -88 -308 -61 -82 21 -128
45 -190 101 -46 42 -54 46 -70 34 -9 -8 -67 -56 -129 -107 -236 -196 -281
-220 -349 -186 -71 35 -101 111 -70 175 14 31 150 153 261 235 21 16 98 78
169 137 144 120 221 162 320 176 104 15 169 0 471 -111 l280 -103 493 -3 492
-3 0 76 0 75 -220 0 -220 0 -2 1213 -3 1212 -22 42 c-27 51 -82 96 -132 112
-56 16 -3213 14 -3259 -2z m3243 -162 l25 -24 0 -1196 0 -1195 -179 0 -179 0
-263 96 c-144 52 -288 102 -318 110 -45 11 -154 14 -571 14 l-515 0 -330 -110
-330 -110 -292 0 -293 0 0 1195 0 1196 25 24 24 25 1586 0 1586 0 24 -25z
m-2524 -3174 c49 -50 42 -71 -68 -182 -86 -88 -101 -99 -132 -99 -47 0 -81 33
-81 78 0 30 12 47 88 124 115 119 142 130 193 79z m292 -141 c30 -24 41 -63
26 -93 -16 -32 -229 -246 -261 -263 -53 -28 -118 16 -118 79 0 26 21 51 133
164 145 145 166 155 220 113z m228 -229 c53 -53 45 -69 -109 -223 -154 -154
-170 -162 -223 -109 -53 53 -45 69 109 223 154 154 170 162 223 109z m220
-220 c52 -52 37 -91 -74 -198 -84 -82 -114 -98 -154 -82 -36 13 -52 38 -53 78
0 29 12 46 88 123 115 119 142 130 193 79z m151 -218 c10 -9 18 -22 18 -30 0
-7 5 -13 10 -13 21 0 8 -34 -25 -66 -40 -39 -71 -43 -109 -13 l-27 21 53 58
c29 32 55 58 57 59 3 0 13 -6 23 -16z"/>
<path d="M1740 3995 l0 -75 525 0 525 0 0 75 0 75 -525 0 -525 0 0 -75z"/>
<path d="M850 3625 l0 -75 1415 0 1415 0 0 75 0 75 -1415 0 -1415 0 0 -75z"/>
<path d="M850 3330 l0 -70 1415 0 1415 0 0 70 0 70 -1415 0 -1415 0 0 -70z"/>
<path d="M857 3103 c-4 -3 -7 -37 -7 -75 l0 -68 785 0 785 0 0 75 0 75 -778 0
c-428 0 -782 -3 -785 -7z"/>
<path d="M850 2590 l0 -70 445 0 445 0 0 70 0 70 -445 0 -445 0 0 -70z"/>
<path d="M2790 2590 l0 -70 445 0 445 0 0 70 0 70 -445 0 -445 0 0 -70z"/>
<path d="M1080 2295 l0 -75 185 0 185 0 0 75 0 75 -185 0 -185 0 0 -75z"/>
<path d="M3010 2295 l0 -75 185 0 185 0 0 75 0 75 -185 0 -185 0 0 -75z"/>
</g>
</svg>
