<?xml version="1.0" standalone="no"?>
<!DOCTYPE svg PUBLIC "-//W3C//DTD SVG 20010904//EN"
 "http://www.w3.org/TR/2001/REC-SVG-20010904/DTD/svg10.dtd">
<svg version="1.0" xmlns="http://www.w3.org/2000/svg"
 width="76.000000pt" height="97.000000pt" viewBox="0 0 76.000000 97.000000"
 preserveAspectRatio="xMidYMid meet">

<g transform="translate(0.000000,97.000000) scale(0.100000,-0.100000)"
fill="#000000" stroke="none">
<path d="M257 950 c-42 -17 -58 -40 -68 -98 l-11 -61 -41 -3 c-35 -3 -43 -7
-45 -26 -4 -30 22 -60 57 -64 28 -3 30 -13 16 -75 -6 -26 -3 -35 18 -54 15
-12 29 -34 32 -49 3 -15 21 -42 40 -60 55 -53 45 -74 -35 -71 -32 1 -51 -4
-60 -14 -7 -8 -22 -15 -33 -15 -30 0 -85 -47 -102 -87 -10 -24 -15 -70 -15
-144 0 -97 2 -109 19 -119 13 -6 143 -10 355 -10 411 0 381 -12 374 151 -4 93
-8 112 -29 143 -13 20 -39 42 -56 51 -18 8 -48 22 -67 31 -18 9 -46 15 -62 14
-16 -1 -37 -2 -46 -1 -25 1 -23 43 3 59 11 7 31 37 44 66 13 29 31 56 41 60
14 5 16 15 10 66 -7 59 -6 60 17 60 38 0 77 56 54 79 -6 6 -25 11 -43 11 -34
0 -31 -5 -50 89 -3 16 -16 38 -28 50 -22 20 -35 23 -150 24 -70 1 -132 0 -139
-3z m273 -42 c11 -12 20 -27 20 -32 0 -6 3 -28 6 -48 l7 -38 -137 0 c-114 0
-136 -2 -136 -15 0 -13 27 -15 180 -15 109 0 180 -4 180 -10 0 -25 -49 -30
-274 -30 -210 0 -236 2 -252 18 -17 16 -15 17 49 20 65 3 89 18 47 29 -19 5
-20 11 -14 52 3 25 16 56 27 69 19 21 29 22 148 22 119 0 130 -2 149 -22z
m-302 -237 c3 -16 -1 -22 -10 -19 -7 3 -15 15 -16 27 -3 16 1 22 10 19 7 -3
15 -15 16 -27z m284 -8 c3 -38 9 -41 48 -32 9 3 16 -4 18 -17 2 -14 -3 -23
-15 -26 -11 -3 -25 -26 -36 -57 -14 -39 -27 -57 -57 -76 -92 -58 -221 -10
-237 88 -4 28 -12 41 -29 48 -25 9 -32 33 -13 45 6 3 16 1 22 -5 21 -21 37
-12 37 22 0 19 3 37 7 40 3 4 62 7 129 7 l123 0 3 -37z m48 12 c0 -26 -14 -33
-25 -15 -9 14 1 40 15 40 5 0 10 -11 10 -25z m-169 -267 c19 0 42 2 50 4 30 7
15 -44 -24 -75 l-38 -31 -40 40 c-28 28 -38 45 -33 57 5 13 12 16 28 11 11 -4
37 -7 57 -6z m-171 -118 c0 -73 -2 -80 -20 -80 -18 0 -20 7 -20 73 0 76 4 87
27 87 10 0 13 -20 13 -80z m130 8 c0 -19 -54 -2 -73 24 -31 42 -11 53 34 17
21 -17 39 -35 39 -41z m160 53 c0 -14 -52 -61 -69 -61 -32 0 -30 11 7 45 32
28 62 37 62 16z m78 -19 c4 -35 22 -45 22 -11 0 18 4 20 28 14 63 -16 90 -64
97 -178 7 -106 -4 -140 -42 -135 -25 3 -29 8 -36 52 -4 27 -17 60 -27 74 -12
15 -20 40 -20 63 0 22 -4 39 -10 39 -5 0 -10 -9 -10 -21 0 -15 -5 -20 -22 -17
-21 3 -23 9 -26 67 -4 75 2 94 25 89 12 -2 19 -14 21 -36z m-438 -79 c0 -66
-4 -91 -16 -105 -10 -10 -19 -41 -22 -69 -5 -54 -16 -65 -57 -55 -25 6 -25 8
-25 107 0 116 15 160 64 190 52 32 56 28 56 -68z m370 12 l0 -56 -137 3 -138
3 -3 48 c-3 51 5 58 32 28 15 -17 32 -20 108 -20 83 0 93 2 112 25 12 13 22
24 24 24 1 0 2 -25 2 -55z m93 -133 c16 -32 27 -69 25 -82 l-3 -25 -250 0
-250 0 -3 39 c-2 27 3 48 15 65 11 14 22 34 26 44 6 15 25 17 209 17 l203 -1
28 -57z"/>
<path d="M225 150 c-3 -5 -1 -10 4 -10 6 0 11 5 11 10 0 6 -2 10 -4 10 -3 0
-8 -4 -11 -10z"/>
<path d="M520 150 c0 -5 5 -10 10 -10 6 0 10 5 10 10 0 6 -4 10 -10 10 -5 0
-10 -4 -10 -10z"/>
</g>
</svg>
