<?xml version="1.0" standalone="no"?>
<!DOCTYPE svg PUBLIC "-//W3C//DTD SVG 20010904//EN"
 "http://www.w3.org/TR/2001/REC-SVG-20010904/DTD/svg10.dtd">
<svg version="1.0" xmlns="http://www.w3.org/2000/svg"
 width="97.000000pt" height="99.000000pt" viewBox="0 0 97.000000 99.000000"
 preserveAspectRatio="xMidYMid meet">

<g transform="translate(0.000000,99.000000) scale(0.100000,-0.100000)"
fill="#000000" stroke="none">
<path d="M358 955 c-84 -23 -142 -57 -209 -124 -115 -115 -162 -253 -139 -407
37 -245 229 -414 470 -414 270 0 480 210 480 480 0 221 -144 410 -355 466 -62
17 -185 16 -247 -1z m267 -34 c23 -10 26 -14 15 -21 -8 -6 -31 -10 -51 -10
-32 0 -39 -5 -53 -34 -9 -19 -16 -39 -16 -45 0 -13 62 -25 89 -16 12 3 53 -2
91 -12 57 -14 74 -15 90 -5 11 6 23 12 28 12 7 0 42 -52 42 -62 0 -3 -17 -10
-37 -16 -50 -14 -120 -1 -139 27 -12 17 -25 21 -73 21 -50 0 -61 -4 -85 -29
-26 -27 -28 -34 -21 -79 8 -63 17 -74 85 -104 46 -20 61 -22 89 -14 28 8 36 7
47 -9 8 -10 14 -33 14 -49 1 -17 14 -56 30 -86 18 -32 30 -70 30 -91 0 -23 7
-42 20 -54 11 -10 20 -22 20 -26 0 -17 -53 -69 -107 -105 -226 -150 -530 -69
-651 173 -48 94 -58 188 -35 307 l5 30 14 -26 c8 -14 30 -36 49 -48 27 -16 34
-27 29 -39 -29 -65 0 -140 60 -155 l36 -10 0 -72 c0 -109 38 -184 94 -184 12
0 16 11 16 45 0 25 3 45 8 45 17 0 62 53 62 74 0 12 13 35 29 51 28 26 57 108
45 127 -3 4 -20 8 -38 8 -27 0 -36 6 -55 40 -22 39 -24 40 -76 40 -50 0 -54 2
-75 36 -16 28 -24 34 -33 25 -15 -15 -27 -14 -27 3 0 7 -7 19 -15 26 -8 7 -15
20 -15 30 0 14 11 20 51 25 68 9 129 47 163 100 15 24 37 46 50 49 17 4 27 16
31 37 8 36 -4 49 -50 49 -37 0 -67 16 -45 24 8 2 22 7 30 10 26 10 204 0 235
-13z m-237 -46 c49 -8 55 -28 13 -43 -17 -6 -38 -26 -51 -50 -25 -45 -76 -77
-135 -87 -84 -13 -85 -14 -85 -44 0 -15 9 -40 20 -54 27 -34 9 -44 -28 -17
-17 13 -34 39 -41 62 -11 37 -10 42 18 86 39 61 104 124 161 156 39 22 47 24
65 12 11 -7 39 -17 63 -21z m328 2 c11 -7 33 -22 49 -35 22 -17 26 -25 16 -35
-9 -9 -26 -8 -75 5 -47 13 -73 15 -97 8 -37 -11 -55 -1 -46 24 4 9 18 16 34
16 15 1 39 7 53 15 30 17 39 18 66 2z m-51 -163 c29 -36 108 -49 168 -28 38
14 43 13 55 -3 25 -35 37 -100 37 -203 -1 -88 -5 -114 -25 -160 -13 -30 -27
-59 -31 -64 -15 -16 -39 15 -39 51 0 18 -13 60 -30 93 -18 35 -30 75 -30 98 0
31 -5 41 -30 55 -21 13 -40 16 -66 11 -27 -5 -48 -1 -84 16 -44 21 -48 25 -54
68 -5 38 -3 49 16 69 31 33 85 32 113 -3z m-425 -199 c9 -22 15 -25 65 -25 53
0 56 -1 80 -40 18 -29 32 -40 50 -40 39 0 34 -47 -10 -90 -19 -19 -35 -44 -35
-56 0 -13 -13 -33 -32 -48 -25 -19 -32 -32 -30 -55 4 -47 -16 -47 -38 1 -14
31 -20 65 -20 124 0 87 -4 94 -56 94 -26 0 -54 42 -54 81 0 22 45 79 62 79 5
0 13 -11 18 -25z"/>
</g>
</svg>
