<?xml version="1.0" standalone="no"?>
<!DOCTYPE svg PUBLIC "-//W3C//DTD SVG 20010904//EN"
 "http://www.w3.org/TR/2001/REC-SVG-20010904/DTD/svg10.dtd">
<svg version="1.0" xmlns="http://www.w3.org/2000/svg"
 width="246.000000pt" height="245.000000pt" viewBox="0 0 246.000000 245.000000"
 preserveAspectRatio="xMidYMid meet">

<g transform="translate(0.000000,245.000000) scale(0.100000,-0.100000)"
fill="#000000" stroke="none">
<path d="M1080 2424 c-285 -43 -511 -155 -705 -349 -234 -234 -350 -520 -348
-860 1 -304 99 -567 296 -792 222 -256 568 -413 907 -413 498 0 960 323 1131
792 187 510 18 1072 -421 1397 -154 114 -359 198 -542 221 -78 9 -264 12 -318
4z m115 -331 l0 -258 -207 -3 c-115 -1 -208 1 -208 5 0 20 90 227 120 279 54
91 163 197 230 221 30 12 57 20 60 18 3 -2 5 -119 5 -262z m184 220 c109 -71
206 -214 271 -398 10 -27 21 -58 25 -68 7 -16 -5 -17 -199 -15 l-207 3 -1 140
c0 77 0 195 1 262 l1 122 42 -15 c24 -8 54 -22 67 -31z m-441 -30 c-84 -91
-181 -274 -219 -415 l-10 -38 -220 0 c-173 0 -219 3 -213 13 28 46 98 132 154
187 116 116 259 206 422 265 130 47 141 46 86 -12z m659 16 c153 -54 258 -115
385 -223 54 -45 174 -184 201 -232 7 -12 -25 -14 -212 -14 l-220 0 -15 53
c-42 144 -130 309 -214 400 -53 56 -45 58 75 16z m-911 -556 c-23 -78 -56
-322 -56 -420 l0 -63 -267 2 -268 3 3 45 c8 136 76 373 125 438 7 9 67 12 239
12 214 0 229 -1 224 -17z m509 -233 l0 -245 -247 -3 -248 -2 0 52 c0 74 27
295 46 378 l16 70 216 -2 217 -3 0 -245z m513 207 c21 -82 42 -232 49 -345 l6
-112 -247 2 -247 3 0 238 c1 130 1 242 1 247 0 6 78 10 214 10 l214 0 10 -43z
m543 6 c48 -86 105 -296 111 -408 l2 -50 -267 -3 -267 -2 0 63 c0 75 -26 289
-44 369 -7 32 -11 60 -8 63 3 3 107 4 230 3 l225 -3 18 -32z m-1621 -606 c0
-76 25 -285 44 -367 8 -33 10 -62 5 -65 -4 -3 -108 -5 -229 -4 l-221 1 -26 51
c-55 110 -103 296 -103 403 l0 44 265 0 265 0 0 -63z m561 59 c2 -2 3 -115 1
-250 l-3 -246 -209 0 c-196 0 -210 1 -220 19 -15 29 -49 252 -56 373 l-7 108
245 0 c134 0 247 -2 249 -4z m566 -110 c-7 -123 -40 -335 -57 -367 -10 -18
-21 -19 -222 -17 l-212 3 -2 233 c-2 128 0 240 3 248 4 12 47 14 251 14 l245
0 -6 -114z m604 54 c-5 -108 -52 -284 -104 -390 l-22 -45 -220 -3 c-121 -1
-225 0 -231 2 -9 3 -8 19 2 63 18 81 44 295 44 370 l0 63 267 -2 267 -3 -3
-55z m-1621 -602 c44 -128 114 -258 183 -339 31 -38 53 -69 48 -69 -24 0 -215
71 -267 100 -165 90 -298 206 -395 343 l-40 57 219 0 219 0 33 -92z m451 -120
c0 -117 1 -234 2 -261 2 -56 -10 -60 -81 -25 -120 60 -237 223 -307 428 l-24
70 205 0 204 0 1 -212z m464 142 c-70 -205 -183 -363 -304 -424 -91 -47 -86
-60 -86 222 0 136 2 253 3 260 1 9 51 12 206 12 l205 0 -24 -70z m494 10 c-90
-129 -239 -258 -391 -339 -65 -35 -240 -101 -267 -101 -6 0 16 32 48 71 69 82
136 205 181 337 l33 92 219 0 219 0 -42 -60z"/>
</g>
</svg>
