<?xml version="1.0" standalone="no"?>
<!DOCTYPE svg PUBLIC "-//W3C//DTD SVG 20010904//EN"
 "http://www.w3.org/TR/2001/REC-SVG-20010904/DTD/svg10.dtd">
<svg version="1.0" xmlns="http://www.w3.org/2000/svg"
 width="427.000000pt" height="429.000000pt" viewBox="0 0 427.000000 429.000000"
 preserveAspectRatio="xMidYMid meet">

<g transform="translate(0.000000,429.000000) scale(0.100000,-0.100000)"
fill="#000000" stroke="none">
<path d="M775 4241 c-33 -10 -107 -35 -165 -55 -127 -45 -218 -56 -274 -32
-51 21 -73 20 -86 -3 -15 -29 -3 -47 48 -71 40 -19 59 -22 137 -18 75 4 115
13 241 56 174 60 240 67 304 31 35 -20 49 -37 101 -126 19 -34 46 -42 67 -21
18 18 15 43 -12 97 -74 145 -193 191 -361 142z"/>
<path d="M695 3927 c-12 -6 -15 -35 -15 -152 0 -165 0 -165 86 -165 l47 0 -7
-197 c-3 -109 -9 -264 -13 -345 l-6 -148 -73 0 c-62 0 -75 -3 -84 -19 -5 -11
-10 -83 -10 -160 l0 -141 -71 0 c-114 0 -109 10 -109 -205 l0 -185 -173 0
c-183 0 -197 -3 -197 -47 0 -13 28 -79 63 -146 113 -221 238 -395 409 -573
l98 -102 -29 -12 c-80 -33 -122 -144 -90 -241 6 -19 19 -40 27 -46 13 -10 357
-13 1646 -13 l1630 0 38 26 c38 27 119 121 175 204 83 122 159 316 184 464 18
105 16 106 -153 106 l-129 0 13 22 c14 25 25 598 13 695 -7 60 -36 108 -84
140 -33 22 -43 23 -234 23 -186 0 -199 1 -191 18 5 9 10 178 12 376 l3 358
-25 42 c-13 23 -41 51 -64 64 -39 22 -44 22 -441 22 -381 0 -404 -1 -441 -20
-45 -23 -73 -60 -89 -115 -13 -48 -15 -622 -2 -675 5 -19 10 -42 12 -50 3 -13
-25 -16 -196 -20 -130 -3 -207 -9 -221 -17 -42 -24 -83 -81 -89 -125 -9 -62
-1 -700 9 -720 7 -16 1 -18 -74 -18 -73 0 -88 3 -126 28 l-44 27 0 342 c0 297
-2 344 -16 357 -11 12 -35 16 -89 16 l-74 0 -3 150 c-2 121 -6 153 -18 160 -8
5 -45 10 -81 10 l-66 0 -6 108 c-4 59 -10 214 -13 345 l-7 237 47 0 c86 0 86
0 86 166 0 107 -3 146 -12 149 -26 8 -719 10 -733 2z m665 -152 l0 -75 -300 0
-300 0 0 75 0 75 300 0 300 0 0 -75z m-137 -252 c4 -49 9 -189 12 -313 3 -124
8 -240 11 -257 l5 -33 -192 0 -191 0 6 83 c3 45 8 179 11 297 3 118 8 236 11
263 l6 47 158 0 157 0 6 -87z m1527 -211 c0 -141 3 -201 12 -210 17 -17 339
-17 356 0 9 9 12 69 12 210 l0 198 90 0 c102 0 139 -13 158 -55 9 -18 12 -120
12 -350 l0 -323 -26 -31 -26 -31 -399 0 -400 0 -24 26 -25 27 0 339 0 340 29
29 c29 28 32 29 130 29 l101 0 0 -198z m298 31 l-3 -168 -107 -3 -108 -3 0
171 0 170 110 0 110 0 -2 -167z m-1638 -623 l0 -120 -350 0 -350 0 0 120 0
120 350 0 350 0 0 -120z m840 -284 c0 -244 -15 -226 195 -226 210 0 195 -18
195 226 l0 194 96 0 c167 0 164 8 164 -398 0 -195 -4 -320 -11 -340 -22 -62
-19 -62 -439 -62 -389 0 -408 2 -437 39 -9 12 -12 106 -13 364 l0 348 26 24
c25 23 35 25 125 25 l99 0 0 -194z m310 29 l0 -165 -110 0 -110 0 0 165 0 165
110 0 110 0 0 -165z m680 -35 c0 -187 1 -200 19 -210 11 -5 86 -10 171 -10 85
0 160 5 171 10 18 10 19 23 19 210 l0 200 101 0 c98 0 101 -1 130 -29 l29 -29
0 -342 0 -342 -29 -29 -29 -29 -392 0 -392 0 -29 29 -29 29 0 342 0 342 29 29
c29 28 32 29 130 29 l101 0 0 -200z m300 35 l0 -165 -110 0 -110 0 0 165 0
165 110 0 110 0 0 -165z m-1940 -226 c0 -151 -4 -269 -9 -267 -15 6 -101 112
-128 158 -50 88 -1 80 -500 80 l-443 0 0 150 0 150 540 0 540 0 0 -271z m-230
-120 c0 -20 108 -155 181 -225 41 -39 101 -89 134 -110 l60 -39 1198 -3 c676
-1 1197 -6 1197 -11 0 -22 -54 -191 -81 -255 -40 -94 -110 -204 -181 -288
l-59 -68 -1609 0 -1610 0 -6 25 c-14 58 36 118 109 130 96 16 90 37 -44 170
-132 131 -213 227 -301 355 -72 104 -178 292 -178 315 0 13 79 15 595 15 410
0 595 -3 595 -11z"/>
<path d="M824 2736 c-3 -8 -4 -25 -2 -38 3 -22 7 -23 83 -23 l80 0 0 35 0 35
-78 3 c-61 2 -79 0 -83 -12z"/>
<path d="M1130 2730 c-8 -14 -8 -26 0 -40 10 -19 19 -21 82 -18 55 2 73 7 82
21 8 12 8 22 0 35 -9 13 -27 18 -82 20 -63 3 -72 1 -82 -18z"/>
<path d="M668 2385 c-19 -42 3 -55 88 -55 70 0 74 1 80 25 10 42 -10 55 -87
55 -64 0 -70 -2 -81 -25z"/>
<path d="M982 2398 c-16 -16 -15 -43 2 -57 23 -19 146 -10 160 12 8 12 8 22 0
35 -14 22 -142 30 -162 10z"/>
<path d="M1292 2401 c-8 -5 -12 -21 -10 -37 3 -29 3 -29 80 -32 69 -3 78 -1
88 18 8 14 8 26 0 40 -9 17 -21 20 -78 20 -37 0 -73 -4 -80 -9z"/>
<path d="M325 1977 c-24 -18 -14 -62 17 -71 41 -11 978 -7 999 4 21 12 25 50
7 68 -19 19 -997 17 -1023 -1z"/>
<path d="M955 1853 c-31 -8 -83 -51 -100 -83 -8 -16 -15 -51 -15 -78 0 -165
227 -217 299 -68 27 54 26 91 -1 146 -34 67 -109 101 -183 83z m92 -98 c29
-20 37 -59 19 -94 -17 -32 -34 -41 -76 -41 -33 0 -70 40 -70 75 0 12 9 34 21
49 24 30 71 35 106 11z"/>
<path d="M1546 1578 c-13 -19 -14 -25 -2 -43 13 -20 17 -20 1215 -23 817 -1
1208 1 1222 8 21 12 25 50 7 68 -9 9 -294 12 -1219 12 l-1208 0 -15 -22z"/>
<path d="M487 966 c-52 -19 -101 -53 -179 -124 -66 -60 -117 -84 -198 -94 -21
-3 -25 -8 -25 -38 l0 -35 60 1 c82 1 138 28 228 111 87 81 135 107 198 106 58
-1 97 -21 187 -100 111 -96 159 -118 262 -118 73 0 93 4 140 28 31 16 89 57
128 93 40 35 85 70 100 78 86 43 160 23 268 -74 112 -100 166 -125 274 -125
104 0 155 23 257 116 83 75 134 102 193 102 59 0 110 -27 195 -104 96 -87 158
-114 260 -114 102 0 158 26 270 125 110 97 181 117 267 74 15 -8 60 -43 100
-78 40 -36 97 -77 128 -93 47 -24 67 -28 140 -28 107 0 145 17 271 125 81 69
99 81 153 92 51 11 62 17 64 36 6 40 -16 55 -72 48 -66 -7 -117 -36 -198 -111
-87 -81 -145 -110 -218 -109 -74 0 -130 27 -218 107 -88 79 -147 110 -224 115
-76 6 -159 -33 -250 -116 -92 -83 -138 -106 -213 -106 -75 0 -122 23 -221 109
-105 92 -143 110 -234 110 -92 0 -124 -16 -236 -112 -101 -87 -142 -107 -219
-107 -76 0 -120 22 -216 109 -97 87 -145 110 -234 110 -89 0 -138 -23 -237
-112 -96 -86 -138 -107 -213 -107 -77 -1 -128 24 -223 109 -40 36 -92 75 -115
86 -52 27 -149 34 -200 15z"/>
<path d="M455 662 c-33 -16 -93 -59 -132 -95 -87 -79 -95 -84 -175 -100 -63
-13 -63 -13 -63 -47 l0 -35 62 2 c84 2 133 26 227 112 97 89 127 105 191 105
64 0 110 -25 200 -105 98 -87 159 -114 260 -114 71 0 86 4 140 33 33 18 91 59
128 92 87 77 120 94 182 94 63 0 97 -18 185 -98 103 -92 165 -121 265 -121
102 0 161 26 265 119 88 78 129 99 190 100 60 1 106 -23 191 -100 102 -91 163
-119 264 -119 100 0 162 29 265 121 88 80 122 98 185 98 62 0 91 -15 189 -99
99 -83 163 -116 241 -122 105 -9 183 27 311 142 56 50 76 62 132 76 61 15 67
19 70 44 6 47 -35 57 -125 30 -38 -11 -72 -34 -134 -90 -101 -92 -154 -119
-229 -119 -72 0 -125 26 -220 110 -105 93 -138 108 -230 109 -95 0 -139 -21
-240 -111 -89 -81 -145 -108 -220 -108 -69 0 -116 24 -207 104 -179 158 -299
160 -474 8 -98 -86 -149 -112 -219 -112 -74 0 -129 27 -218 107 -99 89 -148
112 -237 112 -89 0 -138 -23 -235 -110 -91 -81 -148 -110 -220 -109 -70 0
-122 26 -218 110 -95 83 -141 106 -222 111 -57 4 -73 0 -125 -25z"/>
<path d="M477 385 c-48 -18 -86 -45 -170 -122 -66 -61 -86 -71 -182 -90 -36
-8 -40 -12 -43 -40 -3 -28 1 -33 22 -39 69 -17 181 32 274 119 85 80 123 100
187 101 65 1 103 -19 195 -100 102 -91 164 -119 260 -119 97 0 158 28 263 119
157 137 225 138 374 5 37 -33 97 -74 133 -92 55 -27 75 -32 140 -32 94 0 160
30 252 113 96 87 133 107 198 106 68 0 96 -15 189 -98 102 -92 165 -121 261
-121 65 0 85 5 140 32 36 18 96 59 133 92 148 132 216 132 371 -2 109 -95 169
-122 266 -122 98 0 162 30 260 119 79 72 106 90 160 101 70 13 71 15 68 48 -3
29 -6 32 -41 35 -66 6 -129 -23 -214 -99 -182 -162 -286 -164 -458 -9 -87 80
-150 110 -231 110 -78 0 -139 -30 -234 -115 -88 -79 -145 -108 -214 -108 -71
0 -128 28 -216 106 -93 82 -147 110 -227 115 -53 4 -71 0 -125 -26 -35 -16
-94 -58 -133 -92 -84 -76 -141 -104 -211 -103 -70 0 -127 30 -216 110 -93 84
-153 113 -233 113 -80 0 -142 -30 -235 -114 -93 -83 -145 -109 -219 -109 -71
0 -114 21 -217 109 -99 84 -160 114 -234 113 -30 0 -72 -7 -93 -14z"/>
</g>
</svg>
