<?xml version="1.0" standalone="no"?>
<!DOCTYPE svg PUBLIC "-//W3C//DTD SVG 20010904//EN"
 "http://www.w3.org/TR/2001/REC-SVG-20010904/DTD/svg10.dtd">
<svg version="1.0" xmlns="http://www.w3.org/2000/svg"
 width="460.000000pt" height="393.000000pt" viewBox="0 0 460.000000 393.000000"
 preserveAspectRatio="xMidYMid meet">

<g transform="translate(0.000000,393.000000) scale(0.100000,-0.100000)"
fill="#000000" stroke="none">
<path d="M755 3881 c-96 -26 -177 -83 -230 -165 -130 -198 -54 -463 163 -564
50 -24 69 -27 157 -27 89 0 107 3 160 28 76 35 148 105 188 182 30 56 32 67
32 165 0 93 -3 111 -27 162 -37 79 -108 152 -185 190 -54 26 -78 32 -146 34
-45 2 -95 -1 -112 -5z m189 -121 c36 -14 68 -36 98 -68 128 -137 91 -346 -76
-435 -54 -28 -184 -31 -233 -4 -99 53 -156 143 -157 247 -1 197 184 328 368
260z"/>
<path d="M2205 3880 c-241 -53 -385 -234 -385 -482 0 -202 128 -378 326 -449
44 -16 82 -21 154 -21 72 0 110 5 154 21 128 46 224 133 284 258 31 65 37 89
40 163 5 102 -8 175 -47 256 -53 111 -146 193 -267 234 -66 24 -198 34 -259
20z m206 -120 c167 -52 268 -201 257 -379 -6 -102 -40 -172 -118 -244 -164
-152 -411 -130 -548 49 -111 144 -90 374 46 495 104 92 232 120 363 79z"/>
<path d="M3645 3877 c-107 -36 -197 -114 -241 -210 -26 -56 -29 -72 -29 -167
0 -96 3 -110 29 -162 40 -78 108 -145 186 -182 59 -28 74 -31 165 -31 93 0
105 2 167 33 294 144 287 557 -11 699 -67 31 -201 41 -266 20z m192 -112 c153
-46 234 -237 160 -381 -27 -53 -75 -101 -130 -131 -49 -27 -179 -24 -233 4
-170 90 -205 310 -71 441 76 74 171 98 274 67z"/>
<path d="M592 2969 c-141 -21 -266 -86 -371 -190 -108 -109 -171 -237 -191
-391 -13 -98 -13 -943 0 -989 5 -19 24 -48 41 -65 30 -29 31 -29 170 -32 l139
-4 0 -169 c0 -192 8 -226 62 -259 32 -19 50 -20 411 -20 l377 0 0 -72 c0 -89
25 -147 78 -180 34 -21 50 -23 210 -26 l172 -4 0 -211 c0 -123 5 -229 11 -252
6 -21 26 -54 44 -72 l33 -33 517 0 c499 0 518 1 545 20 55 39 60 66 60 319 l0
231 151 0 c178 0 225 10 269 56 30 30 34 41 43 129 l11 95 373 0 c423 0 420 0
454 73 16 36 19 67 19 210 l0 167 128 0 c108 0 132 3 159 20 67 41 64 16 66
577 2 464 0 514 -16 573 -54 194 -181 351 -352 435 -130 64 -169 70 -470 70
-303 0 -337 -5 -475 -73 -90 -44 -220 -167 -269 -254 l-32 -57 -57 29 c-153
76 -285 93 -678 87 -323 -4 -355 -9 -501 -77 l-82 -38 -32 54 c-62 108 -165
203 -287 264 -111 55 -156 62 -422 65 -135 2 -273 -1 -308 -6z m603 -129 c132
-42 246 -132 318 -253 l35 -57 -62 -63 c-110 -110 -186 -241 -229 -396 -20
-72 -21 -103 -25 -594 l-3 -517 -367 2 -367 3 -3 580 c-2 531 -3 581 -19 593
-23 17 -53 15 -75 -5 -17 -15 -18 -40 -18 -370 l0 -353 -120 0 -120 0 0 493
c0 537 1 544 59 662 78 156 239 270 419 294 37 6 166 8 287 7 194 -3 228 -6
290 -26z m2859 6 c148 -41 286 -154 349 -287 57 -120 58 -136 55 -664 l-3
-480 -117 -3 -118 -3 0 348 c0 384 -1 393 -59 393 -52 0 -54 -11 -52 -258 1
-125 -1 -386 -5 -579 l-7 -353 -363 0 -363 0 -4 513 c-3 450 -6 520 -21 581
-42 161 -119 298 -231 410 l-63 63 30 56 c78 145 238 253 413 277 102 15 491
5 559 -14z m-1434 -256 c159 -26 309 -100 418 -209 91 -91 158 -208 194 -340
21 -74 21 -94 19 -701 -2 -411 -6 -629 -13 -638 -8 -9 -55 -12 -174 -12 l-164
0 0 463 c0 347 -3 466 -12 475 -17 17 -58 15 -80 -5 -17 -15 -18 -52 -18 -758
0 -563 -3 -744 -12 -753 -17 -17 -939 -17 -956 0 -9 9 -12 189 -12 748 0 810
2 780 -60 780 -60 0 -60 2 -60 -497 l0 -453 -165 0 c-155 0 -165 1 -175 20 -8
15 -10 206 -7 643 4 682 3 672 67 813 100 221 296 374 535 419 86 16 580 20
675 5z"/>
</g>
</svg>
