<?xml version="1.0" standalone="no"?>
<!DOCTYPE svg PUBLIC "-//W3C//DTD SVG 20010904//EN"
 "http://www.w3.org/TR/2001/REC-SVG-20010904/DTD/svg10.dtd">
<svg version="1.0" xmlns="http://www.w3.org/2000/svg"
 width="287.000000pt" height="287.000000pt" viewBox="0 0 287.000000 287.000000"
 preserveAspectRatio="xMidYMid meet">
<metadata>
Created by potrace 1.14, written by Peter Selinger 2001-2017
</metadata>
<g transform="translate(0.000000,287.000000) scale(0.100000,-0.100000)"
fill="#000000" stroke="none">
<path d="M904 2813 c-27 -168 15 -305 128 -416 60 -60 145 -112 197 -122 43
-8 35 -15 -16 -15 -71 0 -214 -26 -302 -56 -274 -92 -504 -287 -643 -544 -53
-98 -104 -253 -114 -345 -2 -22 -7 -50 -9 -63 -7 -30 -7 -195 0 -252 46 -370
282 -705 610 -868 81 -40 205 -86 260 -97 171 -32 370 -30 515 5 376 92 680
372 804 740 26 78 29 92 47 200 13 85 10 247 -8 351 -83 484 -484 863 -978
924 -11 1 -23 3 -26 4 -4 0 -3 18 2 39 10 44 12 145 4 187 -10 51 -16 68 -47
130 -68 137 -234 244 -380 245 -36 0 -37 -1 -44 -47z m520 -1194 c294 -99 433
-433 296 -707 -104 -206 -324 -318 -545 -279 -265 48 -458 314 -414 572 14 83
16 92 50 159 74 148 225 254 399 278 51 8 157 -4 214 -23z"/>
<path d="M2360 2149 c-42 -12 -99 -39 -118 -56 -7 -7 -21 -18 -30 -25 -10 -7
-30 -29 -45 -50 l-28 -36 47 -53 c151 -170 259 -415 289 -654 8 -60 7 -238 0
-280 -3 -16 -10 -57 -16 -90 -15 -83 -54 -202 -95 -291 -41 -87 -137 -232
-189 -287 l-36 -37 23 -33 c12 -17 36 -43 52 -57 87 -74 148 -90 343 -90 139
0 153 2 154 18 0 21 0 1991 0 2015 -1 15 -15 17 -158 16 -87 0 -174 -5 -193
-10z"/>
</g>
</svg>
