<svg width="144" height="40" viewBox="0 0 144 40" fill="none" xmlns="http://www.w3.org/2000/svg">
<path d="M123.317 2.64993C123.916 3.47232 124.313 4.42589 124.475 5.43252C124.637 6.43916 124.561 7.47023 124.252 8.44129C123.238 8.44675 122.237 8.21015 121.332 7.75089C120.427 7.29163 119.642 6.62278 119.043 5.79916C118.444 4.97553 118.047 4.02058 117.884 3.01257C117.722 2.00456 117.799 0.972183 118.11 4.65121e-05C119.124 -0.00382687 120.124 0.234275 121.029 0.694859C121.935 1.15544 122.719 1.82541 123.317 2.64993Z" fill="#3A6351"/>
<path d="M143.046 9.84961V38.4947H139.356C138.496 38.494 137.652 38.2633 136.91 37.8261C136.167 37.389 135.553 36.7611 135.131 36.0067C138.177 32.831 139.879 28.5879 139.879 24.1722C139.879 19.7564 138.177 15.5133 135.131 12.3376C135.552 11.5824 136.166 10.9538 136.909 10.5165C137.651 10.0793 138.496 9.84908 139.356 9.84961H143.046Z" fill="#3A6351"/>
<path d="M123.085 8.41113C119.961 8.40995 116.907 9.33528 114.309 11.0701C111.71 12.8049 109.685 15.2713 108.489 18.1573C107.292 21.0433 106.979 24.2192 107.587 27.2835C108.196 30.3477 109.7 33.1626 111.909 35.3722C114.117 37.5817 116.932 39.0866 119.996 39.6965C123.06 40.3064 126.236 39.994 129.122 38.7987C132.009 37.6034 134.476 35.579 136.212 32.9814C137.947 30.3839 138.874 27.3299 138.874 24.2058C138.868 20.0198 137.202 16.0069 134.243 13.0464C131.284 10.0859 127.271 8.41908 123.085 8.41113ZM123.085 31.3792C121.665 31.3803 120.276 30.9601 119.094 30.1717C117.913 29.3833 116.992 28.2621 116.448 26.95C115.903 25.6379 115.761 24.1938 116.038 22.8006C116.314 21.4074 116.998 20.1276 118.003 19.1232C119.007 18.1188 120.287 17.4349 121.68 17.158C123.073 16.8812 124.517 17.0239 125.83 17.568C127.142 18.1122 128.263 19.0333 129.051 20.2149C129.84 21.3964 130.26 22.7853 130.259 24.2058C130.249 26.1054 129.49 27.9244 128.147 29.2677C126.804 30.6109 124.985 31.3697 123.085 31.3792Z" fill="#F58634"/>
<path d="M56.8839 13.4831C56.6205 13.4816 56.3594 13.5293 56.1156 13.6235C55.8717 13.7176 55.65 13.8564 55.4629 14.0319C55.2131 14.2704 55.0335 14.5665 54.9419 14.8909C54.8504 15.2153 54.85 15.5567 54.9409 15.8813C55.0597 16.2855 55.3163 16.6413 55.6708 16.8934C56.0253 17.1454 56.4579 17.2796 56.9013 17.2752C57.1743 17.2871 57.4471 17.2462 57.7029 17.1551C57.9586 17.064 58.1921 16.9246 58.3891 16.7453C58.5861 16.566 58.7424 16.3507 58.8485 16.1123C58.9546 15.874 59.0084 15.6178 59.0064 15.3592C59.0044 15.1006 58.9468 14.8451 58.8371 14.6082C58.7273 14.3714 58.5677 14.1582 58.368 13.9816C58.1683 13.8051 57.9328 13.6688 57.6756 13.5812C57.4184 13.4936 57.1451 13.4565 56.8723 13.4721L56.8839 13.4831ZM53.8911 8.34649C53.6181 8.33261 53.345 8.3715 53.0884 8.4608C52.8318 8.55009 52.5971 8.6879 52.3987 8.86584C52.2003 9.04378 52.0422 9.25811 51.9342 9.49574C51.8262 9.73338 51.7705 9.98935 51.7705 10.248C51.7705 10.5067 51.8262 10.7627 51.9342 11.0003C52.0422 11.2379 52.2003 11.4523 52.3987 11.6302C52.5971 11.8081 52.8318 11.946 53.0884 12.0353C53.345 12.1245 53.6181 12.1634 53.8911 12.1496C54.1641 12.1634 54.4372 12.1245 54.6938 12.0353C54.9504 11.946 55.1851 11.8081 55.3835 11.6302C55.582 11.4523 55.74 11.2379 55.848 11.0003C55.956 10.7627 56.0117 10.5067 56.0117 10.248C56.0117 9.98935 55.956 9.73338 55.848 9.49574C55.74 9.25811 55.582 9.04378 55.3835 8.86584C55.1851 8.6879 54.9504 8.55009 54.6938 8.4608C54.4372 8.3715 54.1641 8.33261 53.8911 8.34649ZM52.3077 14.0429C52.1217 13.8653 51.9003 13.7244 51.6564 13.6282C51.4126 13.5321 51.1509 13.4825 50.8867 13.4825C50.6225 13.4825 50.3609 13.5321 50.117 13.6282C49.8731 13.7244 49.6518 13.8653 49.4657 14.0429C49.2783 14.2184 49.1294 14.4274 49.0279 14.6577C48.9263 14.888 48.874 15.1351 48.874 15.3846C48.874 15.6342 48.9263 15.8813 49.0279 16.1116C49.1294 16.3419 49.2783 16.5509 49.4657 16.7264C49.652 16.903 49.8731 17.0431 50.1166 17.1388C50.36 17.2345 50.621 17.2839 50.8847 17.2841C51.1483 17.2844 51.4094 17.2355 51.6531 17.1403C51.8967 17.045 52.1182 16.9053 52.3048 16.7291C52.4914 16.5529 52.6395 16.3437 52.7407 16.1133C52.8418 15.883 52.894 15.636 52.8943 15.3866C52.8945 15.1371 52.8429 14.8901 52.7422 14.6595C52.6416 14.429 52.4939 14.2194 52.3077 14.0429Z" fill="#3A6351"/>
<path d="M64.9667 20.7004V26.8716C64.9667 27.6347 64.8185 28.3904 64.5306 29.0954C64.2426 29.8004 63.8207 30.4409 63.2887 30.9803C62.7567 31.5197 62.1253 31.9474 61.4304 32.2389C60.7355 32.5304 59.9908 32.6801 59.2388 32.6793H58.0455C57.7376 32.6765 57.4316 32.6299 57.1364 32.5409C56.8157 32.4466 56.5068 32.315 56.2158 32.1487C55.9216 31.9867 55.6518 31.7828 55.4146 31.5432C55.171 31.3089 54.9776 31.0262 54.8464 30.7127H54.7213C54.27 31.4039 53.6304 31.947 52.8803 32.2756C51.976 32.6347 51.0097 32.8054 50.0391 32.7774C49.0702 32.8081 48.1075 32.6107 47.2263 32.2007C46.5571 31.9227 46.021 31.391 45.7318 30.7184H45.6068C45.5541 30.9132 45.4545 31.0916 45.317 31.2375C45.1152 31.4786 44.8885 31.6971 44.6408 31.8892C44.3153 32.1316 43.9575 32.3258 43.5782 32.466C43.2544 32.5955 42.909 32.6601 42.5611 32.6563H16.03C15.7239 32.6534 15.4198 32.6068 15.1265 32.5179C14.804 32.4236 14.4932 32.292 14.2003 32.1257C13.9079 31.9608 13.6385 31.7572 13.3991 31.5201C13.1674 31.2829 12.9856 31.0003 12.8649 30.6896H12.7626C12.7626 31.2112 12.5585 31.7114 12.1951 32.0802C11.8317 32.4491 11.3388 32.6563 10.8249 32.6563H3.63104C2.66803 32.6563 1.74446 32.268 1.06351 31.5769C0.382556 30.8857 0 29.9483 0 28.9709H8.37015V26.4967C8.37762 25.7945 8.28381 25.095 8.09171 24.4204C7.93861 23.8318 7.68054 23.2766 7.33028 22.7825C7.0098 22.3394 6.59389 21.9764 6.11425 21.7212C5.62918 21.469 5.09091 21.3403 4.54591 21.3464H4.43226C4.02808 21.3464 3.62786 21.2655 3.25451 21.1083C2.88117 20.9511 2.54202 20.7208 2.25648 20.4304C1.97094 20.1401 1.74462 19.7955 1.59046 19.4162C1.43631 19.037 1.35734 18.6307 1.35809 18.2204V17.8801H4.52318C5.60413 17.8725 6.67966 18.0359 7.71099 18.3646C8.67052 18.6695 9.55957 19.1677 10.3249 19.8295C11.0953 20.5168 11.7049 21.37 12.1092 22.3268C12.5767 23.4799 12.8012 24.7196 12.7683 25.9661V26.5832C12.7712 27.0127 12.8891 27.4333 13.1093 27.8001C13.3049 28.1019 13.5677 28.3527 13.8764 28.5326C14.1971 28.7139 14.5475 28.8351 14.9106 28.8902C15.2862 28.9531 15.6663 28.9839 16.047 28.9824H16.6948C16.8369 28.9824 33.1738 28.9824 37.856 29.0286C37.9845 28.9978 38.1161 28.9824 38.2481 28.9824H40.2881C40.5211 28.9958 40.7541 28.9585 40.9717 28.8729C41.1893 28.7874 41.3863 28.6556 41.5496 28.4864C41.9035 28.0003 42.0675 27.3982 42.0099 26.7966V23.8264C42.0099 22.9973 42.3343 22.2022 42.9119 21.616C43.4895 21.0298 44.2729 20.7004 45.0897 20.7004H46.3796V26.935C46.3485 27.252 46.3955 27.572 46.5165 27.866C46.6376 28.16 46.8287 28.4188 47.0729 28.6191C47.6158 28.977 48.2559 29.1526 48.9026 29.1208C49.5124 29.173 50.1196 28.9943 50.6073 28.6191C50.8146 28.3956 50.9726 28.1297 51.0706 27.8393C51.1686 27.5489 51.2044 27.2406 51.1755 26.935V23.8264C51.1755 22.9983 51.4992 22.2041 52.0756 21.618C52.652 21.032 53.4339 20.7019 54.2497 20.7004H55.5396V26.8081C55.4808 27.4108 55.6471 28.0138 56.0056 28.498C56.1689 28.6671 56.3659 28.7989 56.5835 28.8845C56.801 28.97 57.0341 29.0073 57.2671 28.994H57.5398C58.3557 28.994 59.1382 28.6654 59.7156 28.0804C60.293 27.4955 60.6182 26.7018 60.6197 25.8738V23.8264C60.6197 22.9983 60.9434 22.2041 61.5197 21.618C62.0961 21.032 62.878 20.7019 63.6938 20.7004H64.9667Z" fill="#3A6351"/>
<path d="M71.9018 11.3242H73.3112V32.7811H71.9018C71.011 32.7811 70.1567 32.4652 69.5268 31.9028C68.8969 31.3404 68.543 30.5777 68.543 29.7824V14.3285C68.543 13.5327 68.8967 12.7694 69.5264 12.2061C70.1561 11.6429 71.0104 11.3257 71.9018 11.3242Z" fill="#3A6351"/>
<path d="M92.3837 11.3242V26.4533C92.375 28.1307 91.7089 29.7367 90.5303 30.9223C89.3517 32.1079 87.7559 32.7771 86.0899 32.7843C86.0899 32.7843 84.9886 32.7843 83.9754 32.7067C83.4161 32.6621 82.8694 32.5156 82.362 32.2743C82.0794 32.1199 81.8214 31.9237 81.5966 31.6922C81.3809 31.4594 81.2093 31.1888 81.0901 30.8939H80.9744V32.3076C80.9843 33.3495 80.8884 34.3898 80.6881 35.4121C80.5316 36.2635 80.2178 37.0778 79.763 37.8126C79.3425 38.4795 78.7508 39.0196 78.0505 39.376C77.2124 39.7704 76.2936 39.9603 75.3689 39.9303C74.9037 39.9305 74.4394 39.8897 73.9813 39.8084C73.5465 39.7388 73.1214 39.6179 72.7148 39.448V37.3247C72.715 37.2276 72.7362 37.1316 72.7771 37.0436C72.818 36.9556 72.8775 36.8777 72.9515 36.8154C73.0255 36.753 73.1122 36.7078 73.2054 36.6827C73.2987 36.6577 73.3962 36.6536 73.4912 36.6706C73.7964 36.7265 74.1062 36.7525 74.4163 36.7482C74.7914 36.7741 75.1652 36.681 75.4852 36.4822C75.8051 36.2833 76.0552 35.9886 76.2004 35.6394C76.597 34.578 76.7713 33.4456 76.7125 32.3131V22.9995C76.7125 22.2041 77.0263 21.4412 77.585 20.8787C78.1437 20.3163 78.9014 20.0003 79.6914 20.0003H80.9744V26.7804C80.9553 27.2193 81.0522 27.6555 81.2552 28.0444C81.4346 28.3562 81.6931 28.6145 82.0041 28.7928C82.3196 28.9774 82.6672 29.0997 83.0283 29.1531C83.3925 29.2118 83.7607 29.2415 84.1296 29.2418H85.1648C85.9549 29.2418 86.7126 28.9259 87.2712 28.3634C87.8299 27.8009 88.1437 27.0381 88.1437 26.2426V14.329C88.1437 13.5321 88.4582 12.7678 89.0179 12.2043C89.5776 11.6408 90.3367 11.3242 91.1282 11.3242H92.3837Z" fill="#3A6351"/>
<path d="M98.9006 11.3242H100.132V32.7811H98.9006C98.1216 32.7811 97.3745 32.4653 96.8232 31.9031C96.2718 31.3409 95.9614 30.5782 95.96 29.7824V14.3285C95.96 13.5317 96.2698 12.7676 96.8212 12.2042C97.3727 11.6407 98.1207 11.3242 98.9006 11.3242Z" fill="#3A6351"/>
</svg>
