<svg version="1.2" xmlns="http://www.w3.org/2000/svg" viewBox="0 0 169 40" width="169" height="40"><style>.a{fill:#3a6351}.b{fill:#f58634}</style><path fill-rule="evenodd" class="a" d="m52.5 12.5h4.6l9.3 22.4h-2.6c-0.6 0-1.2-0.2-1.7-0.5-0.5-0.3-0.9-0.8-1.2-1.4l-0.3-0.8c-0.2-0.5-0.6-1-1.1-1.4-0.5-0.3-1.1-0.5-1.7-0.5h-6.3c-0.6 0-1.2 0.2-1.7 0.5-0.5 0.4-0.9 0.8-1.1 1.4l-0.3 0.8c-0.3 0.6-0.7 1.1-1.2 1.4-0.5 0.3-1.1 0.5-1.7 0.5h-2.5zm5.7 13.9l-3.5-8.6-3.6 8.6z"/><path class="a" d="m68.4 12.5h1c0.8 0 1.5 0.4 2.1 0.9 0.6 0.6 0.9 1.4 0.9 2.2v16.3c0 0.8-0.3 1.5-0.9 2.1-0.6 0.6-1.3 0.9-2.1 0.9h-1z"/><path class="a" d="m75 19.3h2.5q0.2 0 0.5 0.1 0.2 0.1 0.4 0.3 0.2 0.1 0.3 0.4 0.1 0.2 0.1 0.5 0.7-0.9 1.7-1.4 1-0.4 2.1-0.4 1 0 2 0.4l-1 2.3q-0.3 0.6-0.8 0.9-0.5 0.4-1.1 0.3c-1.7 0-2.6 1.3-2.6 3.7v5.5c0 0.8-0.3 1.5-0.9 2.1-0.6 0.6-1.4 0.9-2.2 0.9h-1z"/><path fill-rule="evenodd" class="a" d="m101.5 34.9h-2.4c-0.4 0-0.8-0.1-1-0.4-0.3-0.2-0.4-0.6-0.4-1-1.5 1.2-3.3 1.9-5.2 1.9-2.1 0-4.2-0.9-5.8-2.5-1.6-1.5-2.4-3.6-2.4-5.8 0-2.2 0.8-4.3 2.4-5.9 1.6-1.5 3.7-2.4 5.8-2.4 1.9 0 3.7 0.7 5.1 1.9 0-0.4 0.2-0.8 0.4-1 0.3-0.3 0.6-0.4 1-0.4h2.5zm-8.4-3.3c0.9 0 1.8-0.2 2.6-0.7 0.7-0.5 1.3-1.2 1.7-2 0.4-0.8 0.5-1.7 0.3-2.6-0.1-0.9-0.5-1.7-1.2-2.4-0.6-0.6-1.4-1.1-2.3-1.3-0.9-0.2-1.8-0.1-2.6 0.3-0.9 0.3-1.6 0.9-2.1 1.6-0.5 0.8-0.8 1.7-0.8 2.6q0 0.9 0.3 1.7 0.3 0.8 0.9 1.5 0.7 0.6 1.5 0.9 0.8 0.4 1.7 0.4z"/><path class="a" d="m103.9 32.7c0.4-0.5 1-0.9 1.6-1.1 0.7-0.2 1.4-0.2 2.1 0q0.7 0.3 1.6 0.3c1.1 0 1.8-0.4 1.8-1.3 0-0.8-0.5-1.2-2.2-1.9l-0.7-0.3c-2.8-1.2-4-2.5-4-4.6 0-2.9 2.3-5 5.8-5 1.7 0 3.5 0.5 5 1.5l-0.4 0.6c-0.3 0.6-0.8 1-1.4 1.3-0.7 0.3-1.3 0.3-2 0.2q-0.5-0.1-1-0.1c-1.2 0-1.8 0.4-1.8 1.2 0 0.7 0.5 1.1 2.4 2l0.5 0.2c2.9 1.2 4 2.5 4 4.7 0 3-2.2 5-5.6 5-2.3 0-4.7-0.9-6-2.1z"/><path class="a" d="m117.3 12.5h0.9q0.6 0 1.2 0.3 0.6 0.2 1 0.6 0.4 0.5 0.7 1 0.2 0.6 0.2 1.2v4.5c1.1-0.9 2.5-1.4 4-1.4 3.6 0 6.2 2.6 6.2 6.3v9.9h-1c-0.8 0-1.6-0.3-2.2-0.9-0.5-0.6-0.9-1.3-0.9-2.1v-6.2q0.1-0.6-0.1-1.2-0.2-0.6-0.7-1-0.4-0.5-1-0.7-0.5-0.3-1.2-0.3-0.6 0-1.1 0.2-0.6 0.3-1.1 0.7-0.4 0.5-0.6 1-0.3 0.6-0.3 1.2v6.3q0 0.6-0.2 1.1-0.3 0.6-0.7 1-0.4 0.5-1 0.7-0.6 0.2-1.2 0.2h-1z"/><path fill-rule="evenodd" class="a" d="m142.3 35.4c-5.1 0-8.8-3.5-8.8-8.2 0-1.1 0.2-2.2 0.6-3.3 0.4-1 1.1-1.9 1.8-2.7 0.8-0.8 1.7-1.4 2.8-1.8 1-0.4 2.1-0.6 3.2-0.6 4.6 0 7.9 3.5 7.9 8.2q0 0.8-0.1 1.6h-11.8c0.4 1.9 2 3.1 4.3 3.1 0.9 0 1.7-0.2 2.4-0.6 0.5-0.3 1.1-0.5 1.7-0.4 0.7 0 1.3 0.2 1.7 0.5l1.3 1c-0.8 1-1.9 1.8-3.1 2.4-1.2 0.6-2.5 0.8-3.9 0.8zm3.2-10c-0.2-1.8-1.6-3-3.6-3-0.9 0-1.8 0.3-2.5 0.8-0.7 0.6-1.1 1.3-1.3 2.2z"/><path fill-rule="evenodd" class="a" d="m159.8 18.8c1.8 0 3.5 0.6 4.9 1.7v-4.9c0-0.8 0.3-1.6 0.9-2.2 0.6-0.5 1.4-0.9 2.2-0.9h1v22.4h-2.4c-0.4 0-0.7-0.1-1-0.4-0.3-0.3-0.4-0.6-0.4-1-1.5 1.2-3.3 1.9-5.2 1.9-2.2 0-4.3-0.9-5.8-2.4-1.6-1.6-2.4-3.7-2.4-5.9 0-2.2 0.8-4.3 2.4-5.8 1.5-1.6 3.6-2.5 5.8-2.5zm0.6 12.9c0.9 0 1.7-0.2 2.5-0.7 0.8-0.5 1.4-1.2 1.8-2 0.3-0.9 0.4-1.8 0.3-2.7-0.2-0.9-0.6-1.7-1.2-2.3-0.7-0.7-1.5-1.1-2.3-1.3-0.9-0.2-1.9-0.1-2.7 0.2-0.8 0.4-1.5 0.9-2.1 1.7-0.5 0.7-0.7 1.6-0.7 2.5q-0.1 0.9 0.3 1.7 0.3 0.9 0.9 1.5 0.6 0.7 1.4 1 0.9 0.4 1.8 0.4z"/><path class="a" d="m16.1 2.6c0.6 0.8 1 1.8 1.1 2.8 0.2 1 0.1 2-0.2 3-1 0-1.9-0.3-2.8-0.7-0.9-0.5-1.7-1.1-2.2-2-0.6-0.8-1-1.7-1.2-2.7-0.1-1-0.1-2 0.2-3 1 0 2 0.2 2.9 0.7 0.9 0.4 1.6 1.1 2.2 1.9z"/><path class="a" d="m35.8 9.6v29.2h-3.6c-0.8 0-1.7-0.2-2.4-0.7-0.7-0.4-1.3-1.1-1.7-1.8 2.9-3.3 4.6-7.6 4.6-12.1 0-4.5-1.7-8.9-4.6-12.1 0.4-0.8 1-1.4 1.7-1.9 0.7-0.4 1.6-0.6 2.4-0.6z"/><path fill-rule="evenodd" class="b" d="m27 13c3 3 4.6 7 4.6 11.2 0 3.1-0.9 6.2-2.6 8.8-1.8 2.6-4.2 4.6-7.1 5.8-2.9 1.2-6.1 1.5-9.2 0.9-3-0.6-5.9-2.1-8.1-4.3-2.2-2.2-3.7-5.1-4.3-8.1-0.6-3.1-0.3-6.3 0.9-9.2 1.2-2.9 3.2-5.3 5.8-7.1 2.6-1.7 5.7-2.6 8.8-2.6 4.2 0 8.2 1.6 11.2 4.6zm-6.1 16.2c1.3-1.3 2.1-3.1 2.1-5 0-1.4-0.4-2.8-1.2-4-0.8-1.2-1.9-2.1-3.2-2.7-1.3-0.5-2.8-0.7-4.2-0.4-1.4 0.3-2.7 1-3.7 2-1 1-1.7 2.3-1.9 3.7-0.3 1.4-0.2 2.8 0.4 4.1 0.5 1.3 1.4 2.5 2.6 3.3 1.2 0.7 2.6 1.2 4 1.2 1.9 0 3.8-0.8 5.1-2.2z"/></svg>