<svg version="1.2" xmlns="http://www.w3.org/2000/svg" viewBox="0 0 243 70" width="243" height="70">
	<title>ar-logo-svg</title>
	<style>
		.s0 { fill: #3a6351 } 
		.s1 { fill: #ffffff } 
		.s2 { fill: #f58634 } 
	</style>
	<path class="s0" d="m-53-27h348v138h-348.1z"/>
	<path class="s1" d="m207.9 6.5q0.8 1 1.2 2.2 0.5 1.2 0.7 2.4 0.2 1.3 0.2 2.6-0.1 1.2-0.5 2.5-1.3 0-2.6-0.3-1.2-0.3-2.3-0.9-1.2-0.6-2.1-1.4-1-0.8-1.8-1.9-0.7-1-1.2-2.2-0.5-1.2-0.7-2.4-0.2-1.3-0.1-2.6 0.1-1.3 0.5-2.5 0.6 0 1.2 0.1 0.7 0 1.3 0.2 0.6 0.1 1.2 0.4 0.6 0.2 1.2 0.5 0.5 0.3 1.1 0.6 0.5 0.4 1 0.8 0.5 0.4 0.9 0.9 0.4 0.4 0.8 1z"/>
	<path class="s1" d="m241 18.5v48.1h-6.2q-1.1 0-2.1-0.3-1.1-0.3-2-0.8-0.9-0.6-1.7-1.4-0.8-0.7-1.3-1.7c2.6-2.6 4.6-5.7 5.9-9.1 1.4-3.4 2.1-7.1 2.1-10.7 0-3.7-0.7-7.3-2.1-10.7-1.3-3.4-3.3-6.6-5.9-9.2q0.3-0.5 0.6-0.9 0.3-0.4 0.7-0.8 0.4-0.4 0.8-0.8 0.5-0.3 0.9-0.6 0.5-0.2 1-0.4 0.5-0.3 1-0.4 0.5-0.1 1.1-0.2 0.5-0.1 1-0.1z"/>
	<path fill-rule="evenodd" class="s2" d="m212.4 16.6q2.5 0.5 4.9 1.5 2.4 1 4.5 2.5 2.2 1.4 4 3.3c2.1 2.1 3.9 4.6 5.2 7.4 1.3 2.7 2.1 5.7 2.4 8.7 0.3 3 0 6-0.7 9-0.7 2.9-2 5.7-3.6 8.3-2.2 3.2-5 5.9-8.3 7.9-3.4 2-7.1 3.3-11 3.7-3.8 0.4-7.8-0.1-11.4-1.5-3.7-1.3-7-3.4-9.7-6.2-2.8-2.7-4.9-6.1-6.2-9.7-1.3-3.7-1.8-7.6-1.4-11.5 0.4-3.9 1.6-7.7 3.6-11 2-3.4 4.7-6.3 8-8.4q1.6-1.1 3.3-2 1.8-0.8 3.6-1.4 1.9-0.5 3.8-0.8 1.9-0.3 3.9-0.3 2.5 0 5.1 0.5zm-5.1 38c2.8 0 5.5-1 7.6-2.7 2.2-1.8 3.7-4.3 4.2-7 0.6-2.7 0.1-5.6-1.2-8-1.3-2.5-3.5-4.4-6.1-5.5q-1.6-0.6-3.4-0.8-1.7-0.2-3.5 0.2-1.7 0.3-3.3 1.2-1.5 0.8-2.8 2-1.2 1.3-2 2.9-0.9 1.6-1.2 3.3-0.4 1.8-0.2 3.5 0.2 1.8 0.9 3.4 0.6 1.7 1.8 3.1 1.1 1.3 2.5 2.3 1.5 1 3.2 1.5 1.7 0.6 3.5 0.6z"/>
	<path class="s1" d="m96.4 24.6q-0.3 0-0.6 0.1-0.3 0-0.6 0.2-0.3 0.1-0.6 0.2-0.3 0.2-0.5 0.4-0.2 0.2-0.3 0.4-0.2 0.1-0.3 0.3-0.1 0.2-0.2 0.4-0.1 0.2-0.1 0.4-0.1 0.2-0.1 0.4 0 0.2 0 0.4 0 0.2 0 0.4 0 0.2 0.1 0.4 0.1 0.3 0.2 0.5 0.1 0.3 0.2 0.5 0.2 0.2 0.4 0.4 0.2 0.2 0.4 0.3 0.2 0.2 0.5 0.3 0.2 0.1 0.5 0.2 0.2 0.1 0.5 0.2 0.3 0 0.6 0 0.1 0 0.3 0 0.2 0 0.4-0.1 0.1 0 0.3 0 0.1-0.1 0.3-0.1 0.2-0.1 0.3-0.1 0.2-0.1 0.3-0.2 0.2-0.1 0.3-0.2 0.2-0.1 0.3-0.2 0.1-0.1 0.2-0.2 0.1-0.2 0.2-0.3 0.1-0.1 0.2-0.3 0.1-0.1 0.2-0.3 0-0.1 0.1-0.3 0-0.1 0.1-0.3 0-0.1 0-0.3 0-0.2 0-0.3 0-0.2 0-0.4 0-0.1 0-0.3-0.1-0.1-0.1-0.3-0.1-0.1-0.1-0.3-0.1-0.1-0.2-0.3-0.1-0.1-0.2-0.2-0.1-0.2-0.2-0.3-0.1-0.1-0.2-0.2-0.2-0.1-0.3-0.2-0.1-0.1-0.3-0.2-0.1-0.1-0.3-0.1-0.1-0.1-0.3-0.2-0.2 0-0.3-0.1-0.2 0-0.4 0-0.1 0-0.3-0.1-0.2 0-0.3 0.1zm-5-8.7q-0.2 0-0.4 0-0.2 0-0.3 0.1-0.2 0-0.4 0-0.1 0.1-0.3 0.1-0.1 0.1-0.3 0.2-0.2 0-0.3 0.1-0.1 0.1-0.3 0.2-0.1 0.1-0.3 0.2-0.1 0.1-0.2 0.2-0.1 0.1-0.2 0.3-0.1 0.1-0.2 0.2-0.1 0.2-0.1 0.3-0.2 0.3-0.2 0.6-0.1 0.3-0.1 0.7 0 0.3 0.1 0.6 0 0.3 0.2 0.6 0 0.2 0.1 0.3 0.1 0.2 0.2 0.3 0.1 0.1 0.2 0.2 0.1 0.1 0.3 0.2 0.1 0.2 0.2 0.3 0.2 0.1 0.3 0.1 0.1 0.1 0.3 0.2 0.2 0.1 0.3 0.1 0.2 0.1 0.3 0.1 0.2 0.1 0.4 0.1 0.1 0 0.3 0 0.2 0 0.4 0 0.1 0 0.3 0 0.2 0 0.3 0 0.2 0 0.4-0.1 0.1 0 0.3-0.1 0.2 0 0.3-0.1 0.2-0.1 0.3-0.2 0.2 0 0.3-0.1 0.1-0.1 0.3-0.3 0.5-0.4 0.7-1 0.3-0.6 0.3-1.3 0-0.6-0.3-1.2-0.2-0.7-0.7-1.1-0.2-0.1-0.3-0.2-0.1-0.1-0.3-0.2-0.1-0.1-0.3-0.1-0.1-0.1-0.3-0.2-0.2 0-0.3 0-0.2-0.1-0.4-0.1-0.1 0-0.3 0-0.2 0-0.4 0zm-2.6 9.6q-0.1-0.1-0.3-0.2-0.1-0.1-0.2-0.2-0.2-0.1-0.3-0.2-0.2 0-0.3-0.1-0.2-0.1-0.3-0.1-0.2-0.1-0.3-0.1-0.2 0-0.4 0-0.1-0.1-0.3-0.1-0.3 0.1-0.7 0.1-0.3 0.1-0.6 0.2-0.3 0.1-0.6 0.3-0.2 0.2-0.5 0.4-0.1 0.1-0.2 0.2-0.1 0.1-0.2 0.3-0.1 0.1-0.2 0.2-0.1 0.1-0.1 0.3-0.1 0.1-0.1 0.3-0.1 0.1-0.1 0.3 0 0.1-0.1 0.3 0 0.2 0 0.3 0 0.2 0 0.3 0.1 0.2 0.1 0.3 0 0.2 0.1 0.3 0 0.2 0.1 0.3 0 0.2 0.1 0.3 0.1 0.1 0.2 0.3 0.1 0.1 0.2 0.2 0.1 0.1 0.2 0.2 0.1 0.1 0.3 0.2 0.1 0.1 0.2 0.2 0.2 0.1 0.3 0.2 0.2 0.1 0.3 0.1 0.2 0.1 0.3 0.1 0.2 0.1 0.3 0.1 0.2 0 0.4 0.1 0.1 0 0.3 0 0.2 0 0.3 0 0.2-0.1 0.3-0.1 0.2 0 0.4-0.1 0.1 0 0.3-0.1 0.1 0 0.3-0.1 0.1-0.1 0.3-0.2 0.1-0.1 0.2-0.2 0.2 0 0.3-0.2 0.1-0.1 0.2-0.2 0.1-0.1 0.2-0.2 0.1-0.2 0.2-0.3 0-0.1 0.1-0.3 0.1-0.1 0.1-0.3 0.1-0.1 0.1-0.3 0-0.1 0-0.3 0.1-0.1 0.1-0.3 0-0.1-0.1-0.3 0-0.1 0-0.3 0-0.2-0.1-0.3 0-0.2-0.1-0.3-0.1-0.1-0.1-0.3-0.1-0.1-0.2-0.2-0.1-0.2-0.2-0.3-0.1-0.1-0.2-0.2z"/>
	<path class="s1" d="m110 36.7v10.4q0 0.5 0 0.9-0.1 0.5-0.2 1-0.1 0.5-0.2 0.9-0.2 0.5-0.3 0.9-0.4 0.9-0.9 1.7-0.5 0.8-1.2 1.5-0.7 0.6-1.5 1.2-0.8 0.5-1.6 0.9-0.5 0.2-0.9 0.3-0.5 0.1-0.9 0.2-0.5 0.1-1 0.2-0.4 0-0.9 0h-2q-0.2 0-0.4 0-0.2 0-0.4 0-0.2-0.1-0.4-0.1-0.2 0-0.3-0.1-0.2-0.1-0.4-0.1-0.2-0.1-0.4-0.2-0.2-0.1-0.4-0.2-0.2-0.1-0.4-0.2-0.2-0.1-0.3-0.2-0.2-0.1-0.4-0.2-0.2-0.1-0.3-0.3-0.2-0.1-0.3-0.3-0.2-0.1-0.3-0.3-0.2-0.1-0.3-0.3-0.1-0.2-0.2-0.4-0.1-0.2-0.2-0.4h-0.2q-0.3 0.5-0.6 0.9-0.4 0.4-0.7 0.7-0.4 0.3-0.9 0.6-0.4 0.3-0.9 0.5-0.5 0.2-1.1 0.4-0.6 0.1-1.2 0.2-0.6 0.1-1.2 0.2-0.6 0-1.2 0-0.6 0-1.2 0-0.6-0.1-1.2-0.2-0.6-0.1-1.2-0.3-0.6-0.2-1.1-0.5-0.4-0.2-0.8-0.4-0.4-0.3-0.7-0.6-0.3-0.3-0.6-0.7-0.3-0.4-0.4-0.8h-0.2q-0.1 0.1-0.1 0.2-0.1 0.2-0.1 0.3-0.1 0.1-0.2 0.2 0 0.1-0.1 0.2-0.2 0.1-0.3 0.3-0.1 0.1-0.3 0.3-0.1 0.1-0.3 0.2-0.1 0.1-0.3 0.3-0.2 0.1-0.4 0.3-0.2 0.1-0.4 0.2-0.2 0.2-0.5 0.3-0.2 0.1-0.5 0.2-0.2 0.1-0.4 0.1-0.2 0.1-0.4 0.1-0.2 0.1-0.4 0.1-0.2 0-0.5 0h-44.5q-0.2 0-0.4 0-0.2 0-0.4-0.1-0.2 0-0.3 0-0.2-0.1-0.4-0.1-0.2-0.1-0.4-0.2-0.2 0-0.4-0.1-0.2-0.1-0.4-0.2-0.2-0.1-0.4-0.2-0.2-0.1-0.3-0.2-0.2-0.1-0.4-0.3-0.1-0.1-0.3-0.2-0.2-0.2-0.3-0.3-0.2-0.2-0.3-0.3-0.1-0.2-0.2-0.4-0.2-0.1-0.2-0.3-0.1-0.2-0.2-0.4h-0.2q0 0.3-0.1 0.6 0 0.4-0.2 0.7-0.1 0.3-0.3 0.5-0.2 0.3-0.4 0.5-0.2 0.3-0.5 0.5-0.2 0.1-0.5 0.3-0.3 0.1-0.7 0.2-0.3 0-0.6 0h-12q-0.6 0-1.2-0.1-0.6-0.1-1.1-0.3-0.6-0.3-1.1-0.6-0.5-0.4-0.9-0.8-0.4-0.4-0.8-0.9-0.3-0.6-0.5-1.1-0.3-0.6-0.4-1.2-0.1-0.6-0.1-1.2h14v-4.1q0-0.5 0-0.9 0-0.5-0.1-0.9 0-0.4-0.1-0.8-0.1-0.5-0.2-0.9-0.1-0.4-0.2-0.7-0.2-0.4-0.3-0.7-0.2-0.4-0.4-0.7-0.2-0.3-0.4-0.6-0.2-0.3-0.4-0.6-0.2-0.2-0.5-0.4-0.3-0.3-0.5-0.5-0.3-0.2-0.6-0.3-0.3-0.2-0.6-0.3-0.3-0.1-0.7-0.2-0.3-0.1-0.6-0.1-0.4-0.1-0.7-0.1h-0.2q-0.3 0.1-0.5 0-0.3 0-0.5-0.1-0.3 0-0.5-0.1-0.3-0.1-0.5-0.2-0.3 0-0.5-0.2-0.2-0.1-0.4-0.2-0.2-0.2-0.4-0.3-0.2-0.2-0.4-0.4-0.4-0.4-0.6-0.8-0.3-0.4-0.5-0.9-0.2-0.5-0.3-1-0.1-0.5-0.1-1v-0.6h5.3q0.7 0 1.4 0 0.6 0.1 1.3 0.2 0.7 0.1 1.4 0.3 0.6 0.1 1.3 0.3 0.6 0.2 1.1 0.5 0.6 0.2 1.2 0.5 0.5 0.3 1 0.7 0.6 0.4 1 0.8 0.5 0.4 1 0.9 0.4 0.5 0.8 1 0.4 0.5 0.7 1.1 0.3 0.6 0.5 1.2 0.3 0.7 0.5 1.4 0.3 0.8 0.4 1.6 0.1 0.7 0.2 1.5 0.1 0.8 0 1.6v1q0 0.2 0.1 0.5 0 0.3 0.1 0.5 0.1 0.3 0.2 0.5 0.1 0.2 0.2 0.5 0.1 0.2 0.3 0.3 0.1 0.2 0.3 0.4 0.1 0.1 0.3 0.3 0.2 0.1 0.4 0.2 0.2 0.1 0.4 0.2 0.2 0.1 0.4 0.2 0.3 0.1 0.5 0.1 0.2 0.1 0.4 0.1 0.3 0 0.5 0.1 0.2 0 0.5 0 0.2 0 0.5 0.1 0.2 0 0.4 0h1.1c0.2 0 27.7 0 35.5 0q0.1 0 0.2 0 0 0 0.1 0 0.1 0 0.2 0 0.1 0 0.2 0h3.4q0.1 0 0.3 0 0.1 0 0.3-0.1 0.1 0 0.3 0 0.1-0.1 0.2-0.1 0.2-0.1 0.3-0.1 0.1-0.1 0.3-0.2 0.1-0.1 0.2-0.2 0.1-0.1 0.2-0.2 0.3-0.3 0.4-0.6 0.2-0.4 0.3-0.7 0.1-0.4 0.1-0.8 0-0.3 0-0.7v-4.9q0-0.5 0.1-1 0.1-0.5 0.3-1 0.2-0.5 0.5-0.9 0.2-0.5 0.6-0.8 0.4-0.4 0.8-0.7 0.4-0.3 0.9-0.5 0.4-0.2 0.9-0.3 0.5-0.1 1.1-0.1h2.1v10.5q0 0.2 0 0.4 0 0.2 0 0.4 0.1 0.2 0.1 0.4 0.1 0.2 0.1 0.3 0.1 0.2 0.2 0.4 0.1 0.2 0.2 0.3 0.2 0.2 0.3 0.3 0.1 0.2 0.3 0.3 0.3 0.2 0.7 0.4 0.4 0.2 0.8 0.3 0.4 0.1 0.8 0.1 0.4 0.1 0.8 0 0.4 0.1 0.7 0 0.4 0 0.8-0.1 0.3-0.1 0.7-0.3 0.3-0.2 0.6-0.4 0.3-0.3 0.5-0.6 0.2-0.3 0.3-0.7 0.2-0.4 0.2-0.8 0.1-0.3 0-0.7v-5.2q0-0.5 0.1-1 0.1-0.5 0.3-1 0.2-0.5 0.5-0.9 0.3-0.4 0.6-0.8 0.4-0.4 0.8-0.7 0.4-0.2 0.9-0.4 0.4-0.2 0.9-0.3 0.5-0.2 1-0.2h2.2v10.3q-0.1 0.4 0 0.7 0 0.4 0.1 0.8 0.1 0.3 0.3 0.7 0.1 0.3 0.3 0.6 0.1 0.1 0.3 0.2 0.1 0.1 0.2 0.2 0.1 0.1 0.3 0.2 0.1 0 0.2 0.1 0.2 0 0.3 0.1 0.2 0 0.3 0 0.1 0.1 0.3 0.1 0.1 0 0.3 0h0.5q0.5 0 1-0.1 0.5-0.1 0.9-0.3 0.5-0.2 0.9-0.5 0.4-0.3 0.8-0.7 0.4-0.3 0.6-0.8 0.3-0.4 0.5-0.9 0.2-0.4 0.3-1 0.1-0.5 0.1-1v-3.4q0-0.5 0.1-1 0.1-0.5 0.3-1 0.2-0.5 0.5-0.9 0.3-0.4 0.6-0.8 0.4-0.4 0.8-0.7 0.4-0.2 0.9-0.4 0.5-0.2 1-0.3 0.5-0.1 1-0.1z"/>
	<path class="s1" d="m121.6 21h2.4v36h-2.4q-0.5 0-1.1-0.1-0.5-0.1-1-0.3-0.5-0.2-1-0.4-0.5-0.3-0.9-0.7-0.3-0.3-0.6-0.7-0.3-0.4-0.6-0.9-0.2-0.4-0.3-0.9-0.1-0.5-0.1-1v-26q0-0.5 0.1-1 0.1-0.5 0.3-1 0.3-0.4 0.6-0.8 0.3-0.4 0.6-0.8 0.5-0.3 0.9-0.6 0.5-0.3 1-0.4 0.5-0.2 1.1-0.3 0.5-0.1 1-0.1z"/>
	<path class="s1" d="m156 21v25.4c0 1.4-0.3 2.7-0.8 4-0.5 1.3-1.3 2.5-2.3 3.5-1 0.9-2.1 1.7-3.4 2.3-1.3 0.5-2.7 0.8-4.1 0.8-1.3 0-1.8 0-3.5-0.1q-0.4-0.1-0.7-0.1-0.4-0.1-0.7-0.2-0.3-0.1-0.7-0.2-0.3-0.1-0.6-0.3-0.2-0.1-0.4-0.2-0.1-0.1-0.3-0.2-0.2-0.1-0.3-0.3-0.2-0.1-0.3-0.3-0.1-0.1-0.3-0.3-0.1-0.1-0.2-0.3-0.1-0.2-0.2-0.3-0.1-0.2-0.1-0.4h-0.2v2.4q0 0.6-0.1 1.3 0 0.6-0.1 1.3 0 0.6-0.1 1.3-0.1 0.6-0.2 1.3-0.1 0.5-0.3 1-0.1 0.6-0.3 1.1-0.2 0.5-0.5 0.9-0.2 0.5-0.5 1-0.2 0.4-0.5 0.8-0.3 0.4-0.7 0.7-0.4 0.4-0.8 0.6-0.4 0.3-0.8 0.6-0.5 0.2-1.1 0.4-0.5 0.2-1.1 0.3-0.6 0.1-1.1 0.2-0.6 0-1.2 0-0.3 0-0.6 0-0.3 0-0.6-0.1-0.3 0-0.6 0-0.2-0.1-0.5-0.1-0.3-0.1-0.6-0.1-0.2-0.1-0.5-0.2-0.3 0-0.5-0.1-0.3-0.1-0.6-0.2v-3.6q0.1 0 0.1-0.1 0-0.1 0-0.1 0-0.1 0-0.1 0-0.1 0-0.1 0.1-0.1 0.1-0.2 0 0 0.1-0.1 0 0 0.1 0 0-0.1 0-0.1 0.1-0.1 0.1-0.1 0.1 0 0.1-0.1 0.1 0 0.2 0 0 0 0.1 0 0-0.1 0.1-0.1 0 0 0.1 0 0.1 0 0.1 0 0.1 0 0.1 0.1 0.2 0 0.4 0 0.2 0 0.4 0 0.2 0.1 0.4 0.1 0.2 0 0.4 0 0.5 0 0.9-0.1 0.5-0.1 0.9-0.4 0.4-0.2 0.7-0.6 0.3-0.3 0.5-0.8 0.2-0.6 0.4-1.3 0.2-0.7 0.3-1.4 0.1-0.7 0.2-1.4 0-0.8 0-1.5v-15.6q0-1 0.3-1.9 0.4-0.9 1.1-1.6 0.7-0.7 1.6-1.1 1-0.4 2-0.4h2.1v11.3q0 0.3 0 0.6 0 0.3 0.1 0.5 0.1 0.3 0.2 0.5 0.1 0.3 0.2 0.6 0.1 0.1 0.2 0.3 0.2 0.2 0.3 0.4 0.2 0.1 0.4 0.3 0.1 0.1 0.3 0.2 0.2 0.1 0.4 0.2 0.3 0.1 0.5 0.2 0.2 0.1 0.4 0.1 0.2 0.1 0.5 0.1 0.2 0 0.4 0.1 0.2 0 0.5 0 0.2 0 0.4 0.1 0.3 0 0.5 0h1.7q0.5 0 1-0.1 0.5-0.1 1-0.3 0.4-0.2 0.8-0.5 0.4-0.3 0.8-0.6 0.3-0.4 0.6-0.8 0.3-0.4 0.4-0.9 0.2-0.4 0.3-0.9 0.1-0.5 0.1-1v-20q0-1 0.4-1.9 0.4-0.9 1.1-1.6 0.7-0.7 1.6-1.1 0.9-0.4 1.9-0.4z"/>
	<path class="s1" d="m166.9 21h2.1v36h-2.1q-0.5 0-0.9-0.1-0.5-0.1-1-0.3-0.4-0.2-0.8-0.4-0.4-0.3-0.7-0.7-0.4-0.3-0.7-0.7-0.2-0.4-0.4-0.9-0.2-0.4-0.3-0.9-0.1-0.5-0.1-1v-26q0-0.5 0.1-1 0.1-0.5 0.3-0.9 0.2-0.5 0.4-0.9 0.3-0.4 0.6-0.8 0.4-0.3 0.8-0.6 0.4-0.2 0.8-0.4 0.5-0.2 1-0.3 0.4-0.1 0.9-0.1z"/>
</svg>