<svg version="1.2" xmlns="http://www.w3.org/2000/svg" viewBox="0 0 287 71" width="287" height="71">
	<title>en-logo-svg</title>
	<style>
		.s0 { fill: #3a6351 } 
		.s1 { fill: #ffffff } 
		.s2 { fill: #f58634 } 
	</style>
	<path class="s0" d="m-31.1-27h348.1v138h-348.1z"/>
	<path fill-rule="evenodd" class="s1" d="m89.9 23h7.7l15.7 37.5h-4.5q-0.3 0-0.7-0.1-0.4 0-0.8-0.2-0.3-0.1-0.6-0.2-0.4-0.2-0.7-0.4-0.3-0.2-0.6-0.5-0.3-0.2-0.5-0.5-0.3-0.3-0.5-0.6-0.1-0.4-0.3-0.7l-0.5-1.3q-0.3-0.7-0.8-1.3-0.5-0.6-1.1-1-0.7-0.5-1.4-0.7-0.7-0.2-1.5-0.2h-10.5q-0.7 0-1.5 0.2-0.7 0.2-1.3 0.6-0.7 0.5-1.2 1-0.4 0.6-0.7 1.3l-0.6 1.4q-0.3 0.7-0.8 1.3-0.5 0.6-1.1 1-0.6 0.4-1.3 0.7-0.8 0.2-1.5 0.2h-4.3zm9.7 23.3l-6-14.5-6 14.5z"/>
	<path class="s1" d="m116.5 23h1.7q1 0 1.9 0.4 1 0.4 1.7 1.1 0.7 0.7 1.1 1.7 0.4 0.9 0.4 1.9v27.2q0 1.1-0.4 2-0.4 1-1.1 1.7-0.7 0.7-1.7 1.1-0.9 0.4-1.9 0.4h-1.7z"/>
	<path class="s1" d="m127.7 34.3h4.1q0.1 0 0.2 0 0.1 0 0.2 0 0.1 0.1 0.2 0.1 0.1 0 0.2 0.1 0.1 0 0.2 0.1 0.1 0 0.2 0.1 0.1 0 0.2 0.1 0.1 0.1 0.2 0.1 0 0.1 0.1 0.2 0.1 0.1 0.1 0.2 0.1 0.1 0.2 0.2 0 0 0.1 0.1 0 0.2 0 0.3 0.1 0.1 0.1 0.2 0 0.1 0 0.2 0 0.1 0 0.2 0.6-0.7 1.3-1.3 0.7-0.6 1.5-1 0.8-0.4 1.7-0.6 0.9-0.2 1.8-0.2 0.4 0 0.9 0.1 0.4 0 0.9 0.1 0.4 0.1 0.8 0.2 0.5 0.2 0.9 0.3l-1.8 3.9q-0.1 0.2-0.2 0.4-0.2 0.3-0.3 0.5-0.2 0.1-0.4 0.3-0.2 0.2-0.4 0.3-0.2 0.2-0.4 0.3-0.3 0.1-0.5 0.1-0.2 0.1-0.5 0.1-0.2 0.1-0.5 0.1c-2.9 0-4.4 2.1-4.4 6.1v9.1q0 1-0.3 2-0.4 0.9-1.2 1.7-0.7 0.7-1.6 1.1-1 0.4-2 0.3h-1.6z"/>
	<path fill-rule="evenodd" class="s1" d="m172 60.5h-4.1q-0.5 0-0.9-0.2-0.4-0.2-0.7-0.5-0.4-0.3-0.5-0.7-0.2-0.5-0.2-0.9-0.9 0.7-1.9 1.3-1 0.6-2.1 1-1.1 0.4-2.3 0.6-1.1 0.2-2.3 0.1c-3.7 0-7.2-1.4-9.8-4-2.6-2.6-4.1-6.1-4.1-9.8 0-3.7 1.5-7.2 4.1-9.8 2.6-2.6 6.1-4.1 9.8-4.1q1.2 0 2.3 0.2 1.1 0.2 2.2 0.6 1.1 0.4 2.1 1 1 0.6 1.9 1.3 0-0.4 0.2-0.9 0.2-0.4 0.5-0.7 0.3-0.3 0.7-0.5 0.5-0.2 0.9-0.2h4.2zm-14-5.5q1.1 0.1 2.2-0.2 1.1-0.3 2.1-0.9 1-0.6 1.7-1.5 0.7-0.9 1.2-1.9 0.2-0.5 0.4-1 0.1-0.6 0.2-1.2 0.1-0.5 0.1-1.1-0.1-0.5-0.2-1.1-0.1-0.6-0.2-1.1-0.2-0.5-0.5-1.1-0.2-0.5-0.5-0.9-0.4-0.5-0.8-0.9-0.4-0.4-0.8-0.7-0.5-0.4-1-0.6-0.5-0.3-1-0.5-0.6-0.2-1.1-0.3c-1.1-0.2-2.3-0.2-3.4 0.1-1.1 0.2-2.1 0.7-3 1.4-0.9 0.8-1.6 1.7-2 2.7-0.5 1-0.8 2.1-0.8 3.3q0 0.3 0 0.7 0 0.3 0.1 0.7 0.1 0.4 0.2 0.7 0.1 0.4 0.2 0.7 0.1 0.4 0.3 0.7 0.2 0.3 0.3 0.6 0.2 0.3 0.5 0.6 0.2 0.3 0.4 0.6 0.6 0.5 1.2 0.9 0.6 0.4 1.2 0.7 0.7 0.3 1.4 0.5 0.8 0.1 1.5 0.1z"/>
	<path class="s1" d="m176.1 56.8q0.5-0.7 1.2-1.2 0.7-0.5 1.5-0.7 0.8-0.3 1.7-0.2 0.8 0 1.7 0.3 0.3 0.1 0.6 0.2 0.4 0.1 0.7 0.2 0.4 0.1 0.7 0.1 0.4 0 0.7 0c1.9 0 3-0.8 3-2.3 0-1.2-0.8-2-3.6-3.2l-1.2-0.4c-4.6-2-6.8-4.2-6.8-7.8 0-4.8 3.9-8.2 9.7-8.2q1.1 0 2.2 0.1 1.1 0.2 2.2 0.5 1 0.3 2 0.7 1.1 0.5 2 1.1l-0.6 1.1q-0.4 0.7-1.1 1.2-0.6 0.6-1.3 0.9-0.8 0.3-1.6 0.4-0.8 0.1-1.7-0.1-0.2-0.1-0.4-0.1-0.2 0-0.4-0.1-0.2 0-0.4 0-0.3 0-0.5 0c-1.9 0-3.1 0.8-3.1 2.1 0 1.1 0.9 1.9 4.1 3.3l0.9 0.3c4.8 2.1 6.7 4.3 6.7 7.9 0 5-3.7 8.4-9.5 8.4-3.7 0-7.9-1.5-10-3.6z"/>
	<path class="s1" d="m198.4 23h1.6q0.3 0 0.5 0 0.3 0 0.5 0.1 0.3 0 0.5 0.1 0.3 0.1 0.5 0.2 0.2 0.1 0.5 0.2 0.2 0.1 0.4 0.2 0.2 0.2 0.4 0.3 0.2 0.2 0.4 0.4 0.1 0.2 0.3 0.4 0.2 0.2 0.3 0.4 0.2 0.2 0.3 0.4 0.1 0.2 0.2 0.5 0.1 0.2 0.2 0.4 0.1 0.3 0.1 0.5 0.1 0.3 0.1 0.5 0 0.3 0 0.6v7.5q0.7-0.6 1.5-1 0.8-0.4 1.6-0.7 0.9-0.3 1.7-0.5 0.9-0.1 1.8-0.1c6.1 0 10.4 4.3 10.4 10.6v16.5h-1.6q-1 0-2-0.4-0.9-0.4-1.6-1.1-0.8-0.7-1.1-1.7-0.4-0.9-0.4-1.9v-10.3q0-0.2 0-0.5 0-0.3-0.1-0.5 0-0.3-0.1-0.5 0-0.3-0.1-0.5-0.2-0.5-0.5-0.9-0.2-0.5-0.6-0.8-0.3-0.4-0.7-0.7-0.5-0.3-0.9-0.5-0.5-0.2-1-0.3-0.5-0.2-1-0.2-0.6 0-1.1 0.1-0.5 0.1-0.9 0.3-0.3 0.1-0.5 0.2-0.2 0.2-0.4 0.3-0.3 0.1-0.5 0.3-0.2 0.2-0.3 0.3-0.2 0.2-0.4 0.4-0.1 0.2-0.3 0.4-0.1 0.2-0.3 0.5-0.1 0.2-0.2 0.4-0.1 0.3-0.1 0.5-0.1 0.3-0.2 0.5 0 0.3 0 0.5-0.1 0.3-0.1 0.5v10.4q0 0.3 0 0.6 0 0.2-0.1 0.5 0 0.2-0.1 0.5-0.1 0.2-0.2 0.5-0.1 0.2-0.2 0.4-0.1 0.2-0.3 0.4-0.1 0.2-0.3 0.4-0.1 0.2-0.3 0.4-0.4 0.4-0.8 0.6-0.4 0.3-0.9 0.5-0.5 0.2-1 0.3-0.5 0.1-1 0.1h-1.6z"/>
	<path fill-rule="evenodd" class="s1" d="m240.4 61.3c-8.5 0-14.8-5.9-14.8-13.8q0-1.4 0.2-2.8 0.3-1.3 0.8-2.6 0.6-1.3 1.3-2.5 0.8-1.1 1.8-2.1 0.5-0.5 1-0.9 0.6-0.5 1.1-0.8 0.6-0.4 1.2-0.7 0.6-0.4 1.3-0.6 0.6-0.3 1.3-0.5 0.6-0.2 1.3-0.3 0.7-0.1 1.4-0.2 0.7 0 1.4 0c7.7 0 13.3 5.9 13.3 13.6q0 0.4 0 0.7 0 0.4-0.1 0.7 0 0.4 0 0.7 0 0.3-0.1 0.7h-19.8c0.7 3.2 3.3 5.2 7.2 5.2q0.5 0 1 0 0.6-0.1 1.1-0.2 0.5-0.1 1-0.3 0.4-0.2 0.9-0.5 0.3-0.2 0.7-0.3 0.3-0.2 0.7-0.3 0.4-0.1 0.7-0.1 0.4-0.1 0.8-0.1 0.4 0.1 0.8 0.1 0.3 0.1 0.7 0.2 0.4 0.2 0.7 0.3 0.4 0.2 0.7 0.4l2.1 1.6q-1.1 1.3-2.4 2.3-1.3 1.1-2.9 1.8-1.5 0.7-3.1 1-1.6 0.3-3.3 0.3zm5.3-16.8c-0.4-3-2.8-5-6.1-5q-1.1 0-2.2 0.3-1 0.4-1.9 1.1-0.8 0.7-1.4 1.6-0.6 0.9-0.9 2z"/>
	<path fill-rule="evenodd" class="s1" d="m269.7 33.5q1.1 0 2.2 0.2 1.1 0.2 2.1 0.5 1.1 0.4 2 0.9 1 0.5 1.9 1.2v-8.2q0-1 0.4-1.9 0.4-1 1.1-1.7 0.7-0.7 1.6-1.1 1-0.4 2-0.4h1.6v37.5h-3.9q-0.2 0-0.4-0.1-0.3 0-0.5-0.1-0.2-0.1-0.4-0.2-0.2-0.1-0.4-0.3-0.1-0.2-0.3-0.4-0.1-0.2-0.2-0.4-0.1-0.2-0.1-0.4-0.1-0.3-0.1-0.5-0.9 0.8-1.9 1.4-1 0.6-2.1 1-1.1 0.4-2.3 0.6-1.1 0.2-2.3 0.2c-3.7 0-7.2-1.5-9.8-4.1-2.6-2.6-4.1-6.1-4.1-9.8 0-3.6 1.5-7.2 4.1-9.8 2.6-2.6 6.1-4 9.8-4zm0.9 21.4q1.1 0.1 2.2-0.2 1.1-0.3 2.1-0.9 0.9-0.6 1.7-1.5 0.7-0.8 1.2-1.9 0.2-0.5 0.4-1 0.1-0.6 0.2-1.1 0-0.6 0-1.2 0-0.5-0.1-1.1-0.1-0.5-0.3-1.1-0.1-0.5-0.4-1-0.2-0.5-0.6-1-0.3-0.5-0.7-0.9-0.4-0.4-0.8-0.7-0.5-0.3-1-0.6-0.5-0.3-1-0.5-0.5-0.1-1.1-0.3c-1.1-0.2-2.2-0.2-3.3 0.1-1.1 0.2-2.2 0.8-3.1 1.5-0.8 0.7-1.5 1.6-2 2.6-0.5 1-0.8 2.1-0.8 3.3q0 1.5 0.5 2.9 0.6 1.3 1.6 2.4 1 1.1 2.4 1.7 1.4 0.6 2.9 0.6z"/>
	<path class="s1" d="m29 6.4q0.7 1 1.2 2.2 0.5 1.2 0.7 2.4 0.2 1.3 0.1 2.5-0.1 1.3-0.5 2.5-0.6 0-1.2-0.1-0.6 0-1.2-0.2-0.6-0.1-1.2-0.3-0.6-0.3-1.2-0.5-0.5-0.3-1-0.7-0.5-0.3-1-0.7-0.5-0.5-0.9-0.9-0.4-0.5-0.8-1-0.4-0.5-0.7-1.1-0.3-0.5-0.5-1.1-0.2-0.6-0.4-1.2-0.2-0.6-0.3-1.2-0.1-0.6-0.1-1.3 0-0.6 0-1.2 0.1-0.7 0.2-1.3 0.1-0.6 0.3-1.2 0.6 0 1.2 0.1 0.6 0 1.2 0.2 0.6 0.1 1.2 0.4 0.6 0.2 1.2 0.5 0.5 0.2 1 0.6 0.5 0.3 1 0.8 0.5 0.4 0.9 0.8 0.4 0.5 0.8 1z"/>
	<path class="s1" d="m62 18v49h-6.1q-0.5 0-1-0.1-0.5-0.1-1-0.2-0.5-0.1-1-0.4-0.5-0.2-1-0.4-0.4-0.3-0.8-0.7-0.5-0.3-0.8-0.7-0.4-0.4-0.7-0.8-0.3-0.5-0.6-1c2.5-2.7 4.4-5.9 5.8-9.4 1.3-3.4 2-7.1 2-10.8 0-3.7-0.7-7.4-2-10.8-1.4-3.5-3.3-6.7-5.8-9.4q0.3-0.5 0.6-1 0.3-0.4 0.7-0.8 0.3-0.4 0.7-0.7 0.5-0.4 0.9-0.7 0.5-0.2 1-0.5 0.4-0.2 0.9-0.3 0.5-0.2 1.1-0.2 0.5-0.1 1-0.1z"/>
	<path fill-rule="evenodd" class="s2" d="m33.7 16.5q2.5 0.5 4.9 1.5 2.4 1 4.6 2.5 2.2 1.4 4 3.3c9 8.9 10.4 22.9 3.3 33.5-7 10.5-20.5 14.6-32.2 9.7-11.7-4.8-18.3-17.2-15.8-29.7 2.4-12.4 13.3-21.3 26-21.3q2.6 0 5.2 0.5zm-5.2 38.1q0.6 0 1.2-0.1 0.6 0 1.2-0.2 0.5-0.1 1.1-0.2 0.6-0.2 1.1-0.4 1.7-0.7 3.1-1.9 1.4-1.1 2.4-2.6 1-1.5 1.5-3.2 0.5-1.8 0.5-3.6c0-4.8-2.9-9.3-7.5-11.1-4.5-1.9-9.7-0.9-13.2 2.6-3.4 3.5-4.5 8.7-2.6 13.2 1.9 4.5 6.3 7.5 11.2 7.4z"/>
</svg>